/* XPM */
static char *_207f043069d4285b8383f2e6b0f71a5JT3m5WZt1fyuRlZk[] = {
/* columns rows colors chars-per-pixel */
"64 64 231 2 ",
"   c #382D37",
".  c #593839",
"X  c #4C2D38",
"o  c #6D3B3B",
"O  c #67373A",
"+  c #723C3C",
"@  c #7A3C3D",
"#  c #783639",
"$  c #6A3030",
"%  c #59403C",
"&  c #74423F",
"*  c #7C433E",
"=  c #6E413C",
"-  c #3B3844",
";  c #463B46",
":  c #5A3A42",
">  c #623C45",
",  c #6C3D45",
"<  c #6D3E4A",
"1  c #6A3943",
"2  c #733D43",
"3  c #793E47",
"4  c #3E4752",
"5  c #3C414E",
"6  c #45434E",
"7  c #5B454A",
"8  c #454A54",
"9  c #4B4B55",
"0  c #4B4C5A",
"q  c #464754",
"w  c #5D4B53",
"e  c #534855",
"r  c #4B545D",
"t  c #49555B",
"y  c #52545E",
"u  c #55545B",
"i  c #6D4445",
"p  c #64444A",
"a  c #6D424B",
"s  c #644B4D",
"d  c #6C4A4C",
"f  c #684645",
"g  c #744244",
"h  c #7D4343",
"j  c #73434C",
"k  c #7B454C",
"l  c #734B4C",
"z  c #7C4A4D",
"x  c #794A45",
"c  c #6C514E",
"v  c #7C514C",
"b  c #6C4D53",
"n  c #694953",
"m  c #744552",
"M  c #7B4651",
"N  c #754B53",
"B  c #7C4B53",
"V  c #754E58",
"C  c #6B5254",
"Z  c #6C525B",
"A  c #68565A",
"S  c #745355",
"D  c #7C5253",
"F  c #73535B",
"G  c #7C545B",
"H  c #745A5C",
"J  c #7C5B5D",
"K  c #785A56",
"L  c #4D5462",
"P  c #4B5B64",
"I  c #535563",
"U  c #545B64",
"Y  c #5A5C65",
"T  c #5A5E6B",
"R  c #585867",
"E  c #655A69",
"W  c #7D5B62",
"Q  c #765963",
"!  c #5D646D",
"~  c #576267",
"^  c #5C6470",
"/  c #63636C",
"(  c #686768",
")  c #7D6469",
"_  c #776567",
"`  c #636A73",
"'  c #676674",
"]  c #726878",
"[  c #6D7375",
"{  c #77665F",
"}  c #853C3A",
"|  c #87443C",
" . c #823E41",
".. c #824545",
"X. c #8A4544",
"o. c #844845",
"O. c #8C4A45",
"+. c #83464B",
"@. c #834B4B",
"#. c #8C4C4B",
"$. c #8B4648",
"%. c #934C4C",
"&. c #954948",
"*. c #83514D",
"=. c #8C524E",
"-. c #93524C",
";. c #9A544E",
":. c #824D53",
">. c #8A4D52",
",. c #834E5A",
"<. c #984E51",
"1. c #845253",
"2. c #8C5353",
"3. c #83545B",
"4. c #8B545B",
"5. c #835A5D",
"6. c #8B5957",
"7. c #935454",
"8. c #9B5554",
"9. c #955B55",
"0. c #9A5B55",
"q. c #94565B",
"w. c #9B565A",
"e. c #945C5C",
"r. c #9D5C5C",
"t. c #A35C5B",
"y. c #A45857",
"u. c #9C625D",
"i. c #94625D",
"p. c #87605F",
"a. c #A3635D",
"s. c #A9645D",
"d. c #845C62",
"f. c #8A5962",
"g. c #9A5D62",
"h. c #925B62",
"j. c #A35E61",
"k. c #A95E62",
"l. c #8C6263",
"z. c #886669",
"x. c #9C6363",
"c. c #9C6965",
"v. c #9C6B6C",
"b. c #966668",
"n. c #8A6A72",
"m. c #976C72",
"M. c #8A7478",
"N. c #987577",
"B. c #97706B",
"V. c #A36463",
"C. c #AB6464",
"Z. c #A46A64",
"A. c #AC6A65",
"S. c #A3666A",
"D. c #A46A6A",
"F. c #AC6C6C",
"G. c #AC666A",
"H. c #B26969",
"J. c #A4706D",
"K. c #B1716C",
"L. c #A66D72",
"P. c #AB7473",
"I. c #B57675",
"U. c #96857E",
"Y. c #86817E",
"T. c #767481",
"R. c #8F7F82",
"E. c #9A7D83",
"W. c #A87D81",
"Q. c #75828B",
"!. c #8C8383",
"~. c #868B8A",
"^. c #898688",
"/. c #948C8D",
"(. c #9C8A8C",
"). c #988687",
"_. c #9A918E",
"`. c #8B8E93",
"'. c #9B8D92",
"]. c #958E92",
"[. c #8C9699",
"{. c #959495",
"}. c #9C9495",
"|. c #959897",
" X c #9C9D96",
".X c #94959A",
"XX c #9C9699",
"oX c #959C9C",
"OX c #9C9C9C",
"+X c #A28D8D",
"@X c #A6898B",
"#X c #A6918E",
"$X c #A48C92",
"%X c #AC8B91",
"&X c #A39394",
"*X c #AB9494",
"=X c #A29A96",
"-X c #A2959A",
";X c #A29B9C",
":X c #AB9B9D",
">X c #AA9899",
",X c #B29C9D",
"<X c #B39697",
"1X c #B78992",
"2X c #94A09C",
"3X c #9EA09F",
"4X c #96A097",
"5X c #A3A09E",
"6X c #A9A09D",
"7X c #BBA19E",
"8X c #8B9AA2",
"9X c #939CA3",
"0X c #9B9CA1",
"qX c #9598A7",
"wX c #8C8FA0",
"eX c #A29DA1",
"rX c #AA9DA2",
"tX c #A397A1",
"yX c #B49CA1",
"uX c #9DA2A2",
"iX c #96A2A9",
"pX c #99A6B1",
"aX c #A3A2A2",
"sX c #ABA3A3",
"dX c #ACA9AA",
"fX c #A8A7AA",
"gX c #B2A2A4",
"hX c #B7A7A9",
"jX c #ACACB1",
"kX c #B5B0B3",
"lX c #C1A8AC",
/* pixels */
"OXOXOXOXOXOXOXOXOXOXOXOXOXOXOXOX4X4XOXOX;X;XtXtX'.fX{.'.:X:X,X).U.>X_.6X/.sX/.OXOXOXOXOXOXOX XOXOXOXOXOXOXOXOXOXOXOXOXOXOXOXOXOX",
"OXOXOXOXOXOXOXOXOXOXOXOXOXOXOXOX4X4XOXOX;X;XtXtXjXXXXXhX&X+X#XH { U.>X=X-X;X;XeXOXOXOXOXOXOX X XOXOXOXOXOXOXOXOXOXOXOXOXOXOXOXOX",
"OXOXOXOXOXOXOXOXOXOXOXOXOXOXOXOXOX XOXOX;X;XtXtX^.kX}.'.lX).K N.% ) +X*X:XsXsXXXOXOXOXOXOXOX X XOXOXOXOXOXOXOXOXOXOXOXOXOXOXOXOX",
"OXOXOXOXOXOXOXOXOXOXOXOXOXOXOXOXOXOXOXOXOX;XtXtXtXXX-X>XU.B.b.p.J d d <X&X&X!.dXOXOXOXOXOXOX XOXOXOXOXOXOXOXOXOXOXOXOXOXOXOXOXOX",
"OXOXOXOXOXOXOXOXOXOXOXOXOXOXOXOXOXOXOXOXOX;X;X;X;X!.:X*Xl 1.I.c.l.B.D C 7 &X6XXXOXOXOXOXOXOXOXOXOXOXOXOXOXOXOXOXOXOXOXOXOXOXOXOX",
"OXOXOXOXOXOXOXOXOXOXOXOXOXOXOXOXOXOXOXOX;X;X;X;XsX:Xz.f B.P.=.V.P.:.j l C _ (.dXOXOXOXOXOXOXOXOXOXOXOXOXOXOXOXOXOXOXOXOXOXOXOXOX",
"OXOXOXOXOXOXOXOXOXOXOXOXOXOXOXOXOXOXOXOX;X;X;X;X'.#X).5.z * } C.r.+.z z D n.*X=X XOXOXOXOXOXOXOXOXOXOXOXOXOXOXOXOXOXOXOXOXOXOXOX",
"OXOXOXOXOXOXOXOXOXOXOXOXOXOXOXOXOXOXOXOX;X;X-X-X&Xs f v i.K.s.&.8.#.o z i %X7X>X=X XOXOXOXOXOXOXOXOXOXOXOXOXOXOXOXOXOXOXOXOXOXOX",
"OXOXOXOXOXOXOXOXOXOXOXOXOXOXOXOX^.kX].'.gX:X>X+X7 S v *.Z.A.y.<.8.j.S.e.1.f S #X(.=X_.dXOX;X;X/.OXOXOXOXOXOXOXOXOXOXOXOXOXOXOXOX",
"OXOXOXOXOXOXOXOXOXOXOXOXOXOXOXOXjX{.;X-X&X(.+XS S J v @.0.y.;.;.H.j.w.>.1.g . S S #X&X/.;X-XaXfXOXOXOXOXOXOXOXOXOXOXOXOXOXOXOXOX",
"OXOXOXOXOXOXOXOXOXOXOXOXOXOXOXOXaX/.;XgXb F S l i D i.Z.K.y.| } X.@.7.@.o.z l l.. n.+X(.gX}.-XXXOXOXOXOXOXOXOXOXOXOXOXOXOXOXOXOX",
"OXOXOXOXOXOXOXOXOXOXOXOXOXOXOXOXXX'.rX(.%XS i j J.x.2.#.O.O.;.A.#.o.o.h 2.D.c.b.N.J M.N._ _ -XeXOXOXOXOXOXOXOXOXOXOXOXOXOXOXOXOX",
"OXOXOXOXOXOXOXOXOXOXOXOXOXOXOXOXOXsXw F 5.3.k L.e.9.u.Z.u.0.y.a.u.9.7.o.#.D.D.D.v.D l.N.C _ /.XXOXOXOXOXOXOXOXOXOXOXOXOXOXOXOXOX",
"OXOXOXOXOXOXOXOXOXOXOXOXOXOXOXOX}.}.) J W.4.L.V.9.9.V.Z.u.0.a.Z.9.e.D.7.h #.r.D.S.b.i > C '.-XkXOXOXOXOXOXOXOXOXOXOXOXOXOXOXOXOX",
"OXOXOXOXOXOXOXOXOXOXOXOXOXOXOXOX6X_.C S 4.S.w. .w.w.a.u.-.9.Z.u.c.6.i.7.o.#.$.@ ..q.4.5.@XlX-X;XOXOXOXOXOXOXOXOXOXOXOXOXOXOXOXOX",
"OXOXOXOXOXOXOXOXOXOXOXOXOXOXOXOX}.sX+XK D z @ $.V.r.r.=.* =.Z.c.& x c.x.@.......2 :.1X1X<X$X-XrX;XOXOXOXOXOXOXOXOXOXOXOXOXOXOXOX",
"oXOXOXOXOXOXOXOX{.{.OXOXOXOXXX{.^.sXhX+Xd O 1.+ $ h h h *.h o 1.g g & x j j j < X G b E.<X*X*X>X}.}.XX=X;XXX XOXOXOXOXOXOXOXOXOX",
"OXoXoXOXOXOXOXOXOXOXOXXXOX;XeXOXaX;X!.*X<XG O + @ @...o.2.h + 1.@.x x g j a a a W F p Q *X#XhX#X>X;X;X;X;X;X;X;XOXOXOXOXOXOXOXOX",
"OXOXOXOXOXOXOXOXOXOXXX{.OXaXaX;X'.yXlX%XG , >.7.7.t.7.$.%.$. .$.2.*.x g g g j a > V W W ) S @X*X).}.6X;X;X;X;XOXOXOXOXOXOXOXOXOX",
"OXOXOXOXOXOXOXOXXXXX{.XXOXOXXX/.&XS : N 4.S.S. .t.H.t.$.<.y.%. .9.*.h & k z z j B a . d.l.m.B.c A Y.;X5X=X;XOXXXOXOXOXOXOXOXOXOX",
"OXOXOXOXOXOXOXOXOXOXOXXXOXXX^.M.Z W z.b.L.L.V.I.C.C.y.<.t.k.w.#.u.-...o.2.h.4.:., j 3.N.l.z.p.l w [  X5X X XOXXXOXOXOXOXOXOXOXOX",
"OXOXOXOXOXOXOXOX3X3XOXXXOXOX{./.s S J N j 4.e.V.V.%.%.C.G.r.8.j.A.0.#.2.e.S.g.4.M g 3.1.b.l.l.l _ !.=X;X X XOX5XOXOXOXOXOXOXOXOX",
"OXOXOXOXOXOXOXOXXXOXXXXXOXeXaX;X>Xp . d l l.v.c.#.h =.Z.x.=.2.u.A.y.-.%.9.9.q.:.k 3 g o 1.1.v f (.}. X;XOXOXOX3XOXOXOXOXOXOXOXOX",
"OXOXOXOXOXOXOXOXXXOXOXOXOX;X;X-X(.<X#XS f 1.v *.+ @.u.u.2.@.1.2.a.0.%.X.$.$...h # +.2 2 & @.o i ,X-X}.;X5X5XXX|.OXOXOXOXOXOXOXOX",
"OXOXOXOXOXOXOXOX^.dX{.XXrX-X}.:X).7Xd f l v o *.& @.@.o.@.@.@.=.| ;.&.X.%.#.#.$.$ >.h 2.o *.6.1X).gX>X=X6X;XaX{.OXOXOXOXOXOXOXOX",
"OXOXOXOXOXOXOXOXkX/.jX/.;XsX:X&X<X. N.v = & @.$ #.#.o...@.#.#.#.%.&.&.&.$.%.r.$.7.2.+.x.x.D.*.D ,X).gX'.!.XX{.fXOXOXOXOXOXOXOXOX",
"OXOXOXOXOXOXOXOX{.eX-XhX).>X>X%XD v.@.D.F.t.a.8.%.8.%.O.%.%.$.%.t.&.&.t.%.8.F.#.o.#.e.x.e.e.c.v.z.) (.gX&X=XdX/.OXOXOXOXOXOXOXOX",
"OXOXOXOXOXOXOXOXaXdX}.:X>X7 Z E.h.F.P.S.V.F.y.} <.t.t.y.<.&.X.&.C.8.8.A.y.r.F.r.#.h q.x.D.c.c.D S p s &X>X!.dXsXOXOXOXOXOXOXOXOX",
"OXOXOXOXOXOXOXOX!.eXrXw Q M.z.m.2.q.V.j.<.A.H.&.y.C.t.y.y.<.&.&.y.C.s.A.F.V.V.D.V...o.o.c.v.v.k a G n.s H >X}.].OXOXOXOXOXOXOXOX",
"OXOXOXOXOXOXOXOXfXeX'.$XZ F n V L.P.V.#.V.A.# A.H.C.8.<.t.t.8.%.<.A.s.C.F.a.x.D.V.e.6.g k z b.b.N N G z.n.H ( XXOXOXOXOXOXOXOXOX",
"OXOXOXoXoXOXOXOX].;XrX:X$Xb n., 1.*.& h J.@ I.a.u.a.0.0.V.V.9.7.%.8.8.r.0.0.V.9.e.x.e.:.1.j g < j G a W H A /.;XOXOXOXOXOXOXOXOX",
"OXOXOXoXoXOXOXOXOXsX-X-XyX@Xp a l O & *.o J.x.c.@.u.Z.Z.D.x.9.9.$.$.%.9.o.2.D.o.+ 1.:.g g j j 3.< O V p s (.sX;XOXOXOXOXOXOXOXOX",
" X4X X X XOXOXOX/.;X=X&X:X$Xp p O z g 2 2 o k g e.D.h x.x.2.q.>...@.=.@.h 3 k z , j j a < m V N , N f @X*X>X:X{.OXOXOXOX0XOXOXOX",
"4X X X X XOXOXOXaXdX-X>X,X<XF f 5.1., g M M 4.z x.h h F.2.@ q.@.>.@.h h k @.z g j j j a a m m a d.l.d S ,X&XrXsXOX0X0X0X0XOX;X;X",
" X X4X X XOXOXOX/.=X(.&X<XE.S N.c.2.g k :.:.2.@.h * o.| O.o.7.7.@.7.2...h o.@.z k g j j m j < , B z.S J ).&X/.eXOXOXOXOXOXOX;X;X",
" X X XOXOXOXOXOXsXgXyX,XN.z.5.v.e.2.2.>.+.+.2.@.@ O.;.$ X.-.8.j.-.t.a.#.* o.2.2.@.k g M :.k j < V , z.p H _ rXeXOXOXOXOXOXOX;X;X",
" X XOXOXOXOXOXOX-X).$X@Xl b.W.4.9.u.u.2.$.7.9.7.A.| s.;.| O.t.C.t.s.t.-.#.7.9.2.2.o.k :.4.:.z k j j a d.7 '.-XeXOXOXOXOXOXOX;X;X",
"OXOXOXOXOXOXOX;X'.&XN.m.D 2 + @.Z.Z.r.@.q.S.r.V.K.;.s.;.O.8.t.C.y.C.A.r.%.#.9.e.r.2.:.>.2.2.:.:.M N a V (.yXrX].OXOXOXOXOXOXOX=X",
"OXOXOXOXOXOXOX;XA E.J l.v.+.# F.u.9.#...g.V.>.F.0.A.0.| -.s.8.t.$.t.K.Z.$.@ #.S.V.g.2.:.:.:.:.:.3.f.: V ) (.rXfXOXOXOXOXOX X X X",
"OXOXOXOXOXOXOX;X7 H G 5.2 g.F.# o...& h g.>.# D.Z.#.o.a.@.-.7.>.#.7.r.x.2.h >.x.L.v.h.+.k :.:.M , < G W n 7 rXXXOXOXOXOXOX X X X",
"OXOXOXOXOXOXOX;X).F > 3.h.P.G.r.7.@.+ >.k 3 h D...h @.u.D.g.2.>.k +.>.>.:.k z :.h.f.,.B M j j j O f.> > ) Q A e OXOXOXOXOX X X X",
"OXOXOXOXOXOXOXOX-XH S 3.L.q.G.G.D.e.h k k 3 1 z 2 + @.x.x.:.3 M z z z :.M k j M ,.,.B m m m j j M 1 a m n w A ;XOXOXOXOXOX X X X",
"OXOXOXOXOXOXOXOX/.>XS d :.q.3 G.u.6.:.2 M k k g z @.e.D.b.z M f.B j < j M j j < m m m m m m m m j 1 m > Z $X-X].OXOXOXOXOXOXOX X",
"OXOXOXOXOXOXOXOX;X&X@Xd.g o >.$.2.6.4.k 4.M ,.1.@.1.4.4.@.2 3 ,.,.k j j j j a < < a j j m m m m 3.,., N p C '.rXOXOXOXOXOXOXOXOX",
"OXOXOXOXOXOXOXOX;X-X,X@XL.g h x.Z.u.x.4.x.+.@.:.2.2.2.o.h 3 k M :.M M N j j j m j j m N B B B M j f.j j b s A w OXOXOXOXOXOXOXOX",
"OXOXOXOXOXOXOXOX5X/.>XyXD f.L.D.Z.9.9.x.S.2.@.7.V.V.u.u.g.g.q.>.:.:.:.:.k g k B z N B B B B B B 4.:.3.l p 7 A -XOXOXOXOXOXOXOXOX",
"OXOXOXOXOX4XoXOX].5X>Xs G 5.v.e.O.-.8.C.g.>.@.V.A.0.9.Z.F.r.>.+.@.:.:.:.z k z 1.:.:.:.:.:.:.:.:.z M h.j F $X-X/.;X0X0X0X0XOXOXOX",
"OXOXOXOXOXoXOXOX|.sX!.A C z.D j + 9.Z.P.#.@ @ V.D.#.o.x.D.2.2 g N N B :.z k z 1.1.1.1.:.:.:.:.B B j D n.b C -XsXOXOX0XOX0XOXOXOX",
"OXOXOXoXoXoXOXOX{.XX-X}.!._ A s S l.l D g k 2 2.2 1.B m.l > b p : F n V V V N 3.i 3.3.3.j B B G p C Z C _ ^.eXeXOXOXOXOXOXOXOXOX",
"oXoXoXOXoXOXOXOX;XaXaXsX;X}.}.}.).: C @Xb N z.B f.N p J C s w ; E n 7 Z Z F d G D N 5.d N W.S d C ) R.(.-XeXOX`.OXOXOXoXoXoXOXOX",
"OXOXOXOXOXOXOXOXXXXXOXOXOXOX;XsXhX&X:X:XZ : p d N.F b 7 w w 6 X ; ; w w Z E.H . . p K 7 b gX*X+X$X&X&X}.XX;XaXaXOXOXOXOXOXOXOXOX",
"OXOXOXOXOXOXOXOXXXOXOXOXOXXXXX}.^.sX}./.:X>X).,XhX(.$X7 ; ; ; ; ; ; e   ; rX).H *X) 7 (.gX&X&XgXrX:X;X;X;XOXXXOXOXOXOXOXOXOXOXOX",
"OXOXOXOXOXOXOXOXXXOXuXaXOXOXXXXXfXXXOXaXaXXX;X;X;XXXsX;   ; e e 6 - -   ; ;X;X/./.sX}.kX;X^.XX;X}.XX;XaXaXOX{.{.OXOXOXOXOXOXOXOX",
"OXOXOXOXOXOXOXOX{.XXXX{.XXOXOXOX.X`.fXfX{.`.aXOX{.OXeX; ; E E E ; 9 9 - 9 eXdXtXeX{.].eXOXfX{.aX;XOXXXOXXXOXaXaXOXOXOXOXOXOXOXOX",
";XOXOXOXOXOXOXOX3XaXOXoXXXOXuX0X.X0X0X[.jXuXoX`.oX0X.X9 Y ] ] R I T.T - ; .XfX.X.XfXfX.X~.uX.X.X.XOX;XaXaXaXOXXXOXOXOXOXOXOXOXOX",
";X;XOXOXOXOXOXOXXXOXOX|.|.OXoX{.aX.X0X0X9Xr t ` t Y U - u ] ] E 0 ] 0 6 ; I I r U U 8 9XjX[.iXoXOX3XOXXXXXOXOXXXOXOXOXOXOXOXOXOX",
";X;XOXOXOXOXOXOX{.OX{.{.3XOX|.uX^./ 9 y U t r ! 4 ! y I 0 E E R 9 E u - ; - - I 0 I y r I 8 ! oX{.OXOXXXXX|.|.aXOXOXOXOXOXOXOXOX",
";X;XOXOXOXOXOXOXOXaXXX{.3XuXoX{.[ / / ` ` Y t t ^ ^ ^ 6 R E ] ] e E E E [ / q 6 R I U ` ! y t 9 oX3XoX{.3XaXOXOXOXOXOXOXOXOXOXOX",
"OXOXOXOXOXOXOXOXXXXXOX3X3XOX~.( u u / ` ` ! U L 5 4 T 0 ' ' e - ] / q 6 T ' I L 0 0 ^ ` 8 8 Y Y ( ~.uXuX3XOX{.XXOXOXOXOXOXOXOXOX",
"OXOXOXOXOXOXOXOX{.{.uXaXOXOX~.~ Y u y y I r I R 8 0 I 0 0 ] ; 6 ] / 0 9 / [ ^ U L 0 L U U I Y y ~ ~.aXuXOXXX{.XXOXOXOXOXOXOXOXOX",
"OXOXOXOXOXOXOXOXaXOX3XOX{.aXaX`.u 8 8 Y ! r 0 L T I I q 5 ' 9 Y I I y y T T U r ^ U t L U 8 8 Y |.uXOX{.OXaXeXOXOXOXOXOXOXOXOXOX",
"OXOXOXOXOXOXOXOXaXOXOXXX|.3XaXuX[.[ y y r 0 I ' I L ` 0 R U t r y U U r t t U ~ 8 L t U ^ U ` 9XuXaXOX{.OXOXOX;XOXOXOXOXOXoXoX2X",
"OXOXOXOXOXOXOXOXXXXXXXOXuXXX{.|.uX[.oX9X`.` I 0 I I R 4 U t P r t r ~ ~ P P P P P P ~ Q.9XiX8X9X~.|.OX3XOX{.{.aXOXOXOXOXOXoX2X2X",
"OXOXOXOXOXOXOXOXaXaX{.XXaXOX{.aXoX2XiXiX9X9XqXqXwXpXwXpXiXpX8X[.iXoX9X8X8XiXpX8XpX8XiXpX9X9XpXoXuXOX{.OXaXOXXXaXOXOXOXOXOX2X2X2X"
};
