/* XPM */
static char * east_tree_xpm[] = {
"64 64 8 1",
" 	c None",
".	c #8D4B4E",
"+	c #694455",
"@	c #AB6557",
"#	c #3B3C54",
"$	c #5B545E",
"%	c #786668",
"&	c #746B5C",
"                                                                ",
"                               .+                               ",
"                              .@.+                              ",
"                             .@@..+                             ",
"                            .@@@@@.++                           ",
"                          ..@@.@@+...+                          ",
"                           ++..@@.+++                           ",
"                         ++.@@@...+++                           ",
"                        +...@@@.@.@@.++                         ",
"                       +..+.@@..@@@...+++                       ",
"                    +..++.@@@....+@++++@.+                      ",
"                     ++.@@.....@..++@@@@@@@@@.                  ",
"                  .....@@.@@@.@@.@...@@@@.@@.+                  ",
"                  +@@@@@.@@@@@@@@@@..+@@@@+++                   ",
"                  +.@@...@@@.@@@.@@...++...+                    ",
"                   +..++@@....@@.+@@+..+++                      ",
"                    +++++++..++..++.+++++++                     ",
"                     +++++...++..++++++++.++                    ",
"                    ++...@....+...++++++++..@+                  ",
"                 +++.@@.@@@.....@..+++..+++@.@@++               ",
"               +..@@@@@@@@@.@@..@....@..+++@@@...+              ",
"                +....+@@@..@@@.@@@..@@...++.@@@++               ",
"                 ++++@@@.+.@@..@@@...@@.++++...+                ",
"                   ++...++@@....@@...+++++++++++                ",
"                  ++..+++...+..........++.+.+..                 ",
"                 +@+++++..++..........@....@.@@.                ",
"                +@@@@@@...@.....@..@..@...@@@.@@@.              ",
"             ++@@@@@@@@..@@.....@@.@@@@@.+.@@@@..++             ",
"           +.@@@.@@@.@@.@@@.@...@@@@@@@@@.+.@@@+++@++           ",
"            +..+@@@.@@.@@@..@....@@@@@@@@@.+..@@+..@@.+         ",
"             +++...+@.@@@@@@@@@...@@.@@..@@.++++++...+          ",
"              +++++++@@@+@@@@@@.......@.+..++++.+++++           ",
"              +++.++++++@@+@@.@.....++..+++++++..++             ",
"              ++..++++.+@++@.+......+.++++++++++.@++            ",
"              +@@..++...++..+......++..+++++++++..@+            ",
"             +@@@.......+..+...@.@@......++..++++....+          ",
"            +@@@.@@..+@.@.@...@@@@@...@........+++..+           ",
"          .@++++@@@.+@@@@@@...@@@@@@..@.@........+++            ",
"        .@@@@++@@@.+@@.@@@...@@@.@@@.+.@@@+....+..+.+           ",
"        +...+@@+++++@.+@@..@......@@.+.@@@@++...+++..+          ",
"         +.+@@@@@++..++@.++@@@..+....++.@...++++++++...+        ",
"         ++.@@@@@@++++++++.@@.+..++...++..+.+++++++++++         ",
"          +...+@@@.++.+++.@@@++..++++++++++++++++++++           ",
"           ++++...@+......@.+++..++++++++++++++..+++++          ",
"             ++@@@@.@....@++++...+..+++++++..++....+++++        ",
"            +.@@@@.@@...@@@@@@......+++.+.+...+.....+++         ",
"           ..@@@.+@@@.+@@@.@@@.+....+++........+....+           ",
"           +...++@@@.++@@..@@.++.+...+......+...+....+          ",
"             +++...+++....+@.++++++..+......++...+.++           ",
"                 ++ +...++..+++#++++++..+...+ ++++              ",
"                    ++++ +++++####+++ ++++.+.                   ",
"                           ##########  + ++                     ",
"                           ###$######                           ",
"                           ##$%$#$###                           ",
"                           #$%%$$%$##                           ",
"                           #$%%$$%$##                           ",
"                          %$#$%$$$$####                         ",
"                 & & &  $%$#%%$&$$&$%%##   &                    ",
"                  &&&   ##&#%$$#&&#$$&%                         ",
"                           $$&##&& #&&$$                        ",
"                           ##&                                  ",
"                                                                ",
"                                                                ",
"                                                                "};
