/* XPM */
static char * tree_xpm[] = {
"64 64 8 1",
" 	c None",
".	c #397456",
"+	c #165548",
"@	c #5B9454",
"#	c #3B3C54",
"$	c #5B545E",
"%	c #786668",
"&	c #34805D",
"                                                                ",
"                               .+                               ",
"                              .@.+                              ",
"                             .@@..+                             ",
"                            .@@@@@.++                           ",
"                          ..@@.@@+...+                          ",
"                           ++..@@.+++                           ",
"                         ++.@@@...+++                           ",
"                        +...@@@.@.@@.++                         ",
"                       +..+.@@..@@@...+++                       ",
"                    +..++.@@@....+@++++@.+                      ",
"                     ++.@@.....@..++@@@@@@@@.                   ",
"                   ....@@.@@@.@@.@...@@@@.@.+                   ",
"                   +@@@@.@@@@@@@@@@..+@@@@++                    ",
"                   +@@...@@@.@@@.@@...++...                     ",
"                    ..++@@....@@.+@@+..+++                      ",
"                    +++++++..++..++.+++++++                     ",
"                     +++++...++..++++++++.+                     ",
"                    ++...@....+...++++++++.@+                   ",
"                  ++.@@.@@@.....@..+++..+++.@@++                ",
"                +..@@@@@@@@.@@..@....@..+++@@...+               ",
"                 +...+@@@..@@@.@@@..@@...++@@@++                ",
"                  +++@@@.+.@@..@@@...@@.+++...+                 ",
"                    +...++@@....@@...++++++++++                 ",
"                   +..+++...+..........++.++..                  ",
"                  +@++++..++..........@.....@@.                 ",
"                 +@@@@@...@.....@..@..@...@@.@@@.               ",
"              ++@@@@@@@..@@.....@@.@@@@@.+.@@@..++              ",
"            +.@@@.@@.@@.@@@.@...@@@@@@@@@.+@@@+++@++            ",
"             +..+@@@@@.@@@..@....@@@@@@@@@...@@+..@@.+          ",
"              +++...@.@@@@@@@@@...@@.@@..@@++++++...+           ",
"               ++++++@@@+@@@@@@.......@.+..+++.+++++            ",
"               +++.+++++@@+@@.@.....++..++++++..++              ",
"               ++..+++.+@++@.+......+.+++++++++.@++             ",
"               +@@..+...++..+......++..++++++++..@+             ",
"              +@@@......+..+...@.@@......++.++++....+           ",
"             +@@@.@@.+@.@.@...@@@@@...@.......+++..+            ",
"           .@++++@@@+@@@@@@...@@@@@@..@.@.......+++             ",
"         .@@@@++@@@.@@.@@@...@@@.@@@.+.@@@+...+..+.+            ",
"         +...+@@++++@.+@@..@......@@.+.@@@@+...+++..+           ",
"          +.+@@@@@++.++@.++@@@..+....++.@..++++++++...+         ",
"          ++.@@@@@@+++++++.@@.+..++...++..++++++++++++          ",
"           +...+@@@.+.+++.@@@++..+++++++++++++++++++            ",
"            ++++...@......@.+++..+++++++++++++..+++++           ",
"              ++@@@@@....@++++...+..+++++++.++....+++++         ",
"             +.@@@@.@...@@@@@@......+++.+.+..+.....+++          ",
"            ..@@@.+@@.+@@@.@@@.+....+++.......+....+            ",
"            +...++@@.++@@..@@.++.+...+.....+...+....+           ",
"              +++...++....+@.++++++..+.....++...+.++            ",
"                  +++...++..+++#++++++..+..+ ++++               ",
"                    ++++ +++++####+++ ++++..                    ",
"                           ##########  + ++                     ",
"                           ###$######                           ",
"                           ##$%$#$###                           ",
"                           #$%%$$%$##                           ",
"                           #$%%$$%$##                           ",
"                          %$#$%$$$$####                         ",
"                  &  &  $%$#%%$&$$&$%%##                        ",
"                   &&   ##&#%$$#&&#$$&%                         ",
"                           $$&##&& #&&$$                        ",
"                           ##&                                  ",
"                                                                ",
"                                                                ",
"                                                                "};
