/* XPM */
static char *_a17ee174ae94a86f9be9ad3ffab98deAvmbD1ktpVzAN08c[] = {
/* columns rows colors chars-per-pixel */
"64 64 250 2 ",
"   c #1D3F33",
".  c #073A2A",
"X  c #273B38",
"o  c #36383E",
"O  c #213D2E",
"+  c #05411D",
"@  c #0C4629",
"#  c #154C2C",
"$  c #184529",
"%  c #1C552D",
"&  c #1A5428",
"*  c #0E4B33",
"=  c #0D4734",
"-  c #144C34",
";  c #1B4D34",
":  c #144D3A",
">  c #1C4C3C",
",  c #1D4636",
"<  c #155133",
"1  c #1B5433",
"2  c #1D5933",
"3  c #16523C",
"4  c #1C553C",
"5  c #1D593C",
"6  c #234232",
"7  c #274A39",
"8  c #235B35",
"9  c #24543D",
"0  c #2B543B",
"q  c #235C3B",
"w  c #2C5B3C",
"e  c #245236",
"r  c #32543E",
"t  c #2B5337",
"y  c #26613D",
"u  c #2C653E",
"i  c #2C683A",
"p  c #32683F",
"a  c #37723F",
"s  c #2F3D41",
"d  c #383C45",
"f  c #1C4B41",
"g  c #175142",
"h  c #1B5543",
"j  c #1E5A44",
"k  c #1F5A48",
"l  c #2C4C42",
"z  c #294944",
"x  c #384848",
"c  c #215443",
"v  c #2B5546",
"b  c #245C43",
"n  c #235C4B",
"m  c #2C5B49",
"M  c #335245",
"N  c #335B43",
"B  c #335B4E",
"V  c #3B584A",
"C  c #3C4C54",
"Z  c #3D5C51",
"A  c #3E5157",
"S  c #255F51",
"D  c #246142",
"F  c #2C6443",
"G  c #25614C",
"H  c #2B644C",
"J  c #2C6A49",
"K  c #346D44",
"L  c #33634C",
"P  c #3B634B",
"I  c #336D4C",
"U  c #3D6D4D",
"Y  c #356546",
"T  c #367245",
"R  c #35724E",
"E  c #3A744C",
"W  c #3E7A4D",
"Q  c #3B7646",
"!  c #276251",
"~  c #2C6553",
"^  c #2E6A53",
"/  c #2F695B",
"(  c #336453",
")  c #336C53",
"_  c #336D5A",
"`  c #3C6C5B",
"'  c #3B6A54",
"]  c #357253",
"[  c #3B7453",
"{  c #3E7A53",
"}  c #36705D",
"|  c #3C745C",
" . c #3F7A5A",
".. c #3A6F60",
"X. c #3C7764",
"o. c #40414E",
"O. c #434C54",
"+. c #4B4B56",
"@. c #455C53",
"#. c #4B545B",
"$. c #4D595E",
"%. c #475759",
"&. c #535B5D",
"*. c #57545C",
"=. c #485550",
"-. c #42644C",
";. c #427C4C",
":. c #42764F",
">. c #426453",
",. c #426A5B",
"<. c #496A58",
"1. c #50695C",
"2. c #437554",
"3. c #437C54",
"4. c #43735C",
"5. c #4C735C",
"6. c #437D5B",
"7. c #4B7C5C",
"8. c #53775D",
"9. c #4D5B63",
"0. c #4B5863",
"q. c #535C64",
"w. c #5B5B64",
"e. c #545E69",
"r. c #5A5865",
"t. c #645B68",
"y. c #4D6166",
"u. c #556264",
"i. c #53626A",
"p. c #5B646C",
"a. c #5B6A6D",
"s. c #596266",
"d. c #447D64",
"f. c #487866",
"g. c #537A64",
"h. c #567565",
"j. c #5C6A71",
"k. c #5B6571",
"l. c #5E7175",
"z. c #61666C",
"x. c #62746D",
"c. c #616A72",
"v. c #6A6974",
"b. c #6B7875",
"n. c #757079",
"m. c #46825A",
"M. c #4B845C",
"N. c #4E8A5B",
"B. c #4A8555",
"V. c #538C5C",
"C. c #528856",
"Z. c #4E8956",
"A. c #4D8563",
"S. c #4D8963",
"D. c #488366",
"F. c #538562",
"G. c #538C64",
"H. c #548D6A",
"J. c #5C8B6C",
"K. c #56856A",
"L. c #559163",
"P. c #5A9464",
"I. c #56916B",
"U. c #5B946C",
"Y. c #5D996C",
"T. c #5E9966",
"R. c #5A8A75",
"E. c #5C9373",
"W. c #5D9A72",
"Q. c #5A9376",
"!. c #63886C",
"~. c #629B6D",
"^. c #62926E",
"/. c #638D74",
"(. c #678A79",
"). c #728979",
"_. c #639472",
"`. c #639C75",
"'. c #629D7A",
"]. c #6B9779",
"[. c #68A27B",
"{. c #69A26F",
"}. c #767883",
"|. c #7A8B84",
" X c #699685",
".X c #7C9485",
"XX c #7D938C",
"oX c #7D9D8C",
"OX c #769785",
"+X c #7C9E93",
"@X c #698E85",
"#X c #78A488",
"$X c #79A392",
"%X c #8C8C8C",
"&X c #868B89",
"*X c #84928B",
"=X c #8B928E",
"-X c #839B8C",
";X c #859888",
":X c #8A8C94",
">X c #858C91",
",X c #8C9493",
"<X c #859B92",
"1X c #8C9B94",
"2X c #8C9C9A",
"3X c #8A9598",
"4X c #939494",
"5X c #939A97",
"6X c #9A9D96",
"7X c #949C9B",
"8X c #9C9C9C",
"9X c #97969A",
"0X c #90978F",
"qX c #A09B9C",
"wX c #A09B97",
"eX c #88A28D",
"rX c #8CA395",
"tX c #84AA96",
"yX c #8CA49A",
"uX c #8CAC9B",
"iX c #86A597",
"pX c #93A195",
"aX c #93A39B",
"sX c #9CA29E",
"dX c #92AA9B",
"fX c #97A698",
"gX c #8BB09D",
"hX c #96B49F",
"jX c #949DA4",
"kX c #9E9BA1",
"lX c #979AA8",
"zX c #8D9CA2",
"xX c #A19CA1",
"cX c #96A4A2",
"vX c #9DA4A2",
"bX c #96ABA4",
"nX c #9CABA4",
"mX c #9BA7AA",
"MX c #99B2A6",
"NX c #96AEAC",
"BX c #A2A3A3",
"VX c #A3A9A6",
"CX c #A3A5AA",
"ZX c #A5ABAA",
"AX c #AAA9A8",
"SX c #A5B3AD",
"DX c #A6B3AA",
"FX c #A7ACB0",
"GX c #A9B5B5",
"HX c #B6B4B4",
/* pixels */
"8X8X8X8X8X8X8X8X8X8X8X8X8X8X8X6XpXpX6X6X6X8XkXkX4XAX%X0XVXeX;XeXOXuX-X1X2XsX%XBXxXxXqX8X8X8X6X6X8X8X8X8X8X8X8X8X8X8X8X8X8X8X8X8X",
"8X8X8X8X8X8X8X8X8X8X8X8X8X8X8X6XpXpX6X6X8X8X8XkXkX8XVXVX;XpXdX-.V eXeXMXpXDXsX%XkXxXqX8X8X8X6X6X8X8X8X8X8X8X8X8X8X8X8X8X8X8X8X8X",
"8X8X8X8X8X8X8X8X8X8X8X8X8X8X8X6X6XpX6X6X8X8X8X8X4XVX1XpXhX).8.).P P eX-XaX=X7XFX8X8XqXqX8X8X8X8X8X8X8X8X8X8X8X8X8X8X8X8X8X8X8X8X",
"8X8X8X8X8X8X8X8X8X8X8X8X8X8X8X6X6X6X6X8X8X8X8X8XBX1XaXdX).!.!.g.5.P 7 hXrX1X1X4X8X8XqXqX8X8X8X8X8X8X8X8X8X8X8X8X8X8X8X8X8X8X8X8X",
"8X8X8X8X8X8X8X8X8X8X8X8X8X8X8X8X6X6X6X8X8X8X8X6X5X&XdXrX5.8.].J.J.g.<.Z 6 aXaXsX8X8X8X8X8X8X8X8X8X8X8X8X8X8X8X8X8X8X8X8X8X8X8X8X",
"8X8X8X8X8X8X8X8X8X8X8X8X8X8X8X8X6X6X6X8X8X8X6X7XnXnXh.r ].].-.]./.P P 5.h.M <XnX7X8X8X8X8X8X8X8X8X8X8X8X8X8X8X8X8X8X8X8X8X8X8X8X",
"8X8X8X8X8X8X8X8X8X8X8X8X8X8X8X8X8XwX8X8X6X6XpXpX-XdXOXN w :.:.G.E.2.e $ 7 eXyX*XaX7X6X6X8X8X8X8X8X8X8X8X8X8X8X8X8X8X8X8X8X8X8X8X",
"8X8X8X8X8X8X8X8X8X8X8X8X8X8X8X8XwXwX8X8X6X6XpXpXuX7 t 8.F.^.G.E E U e 0 N ].uXrXyXaXaX6X8X8X8X8X8X8X8X8X8X8X8X8X8X8X8X8X8X8X8X8X",
"8X8X8X8X8X8X8X8X8X8X8X8X8X8X8X8X%XAX4X8XsXpX1XrX6 8.2.U H.U.G.W { M.U.7.4.w 7 oX.XMXaXvX8X%XBXBX8X8X8X8X8X8X8X8X8X8X8X8X8X8X8X8X",
"8X8X8X8X8X8X8X8X8X8X8X8X8X8X8X8XBX4XsX6X*XpXdXt g.U $ Y `.U.3.E #X[ U.H.[ U e r -..X1X=XVXAX%XxX8X8X8X8X8X8X8X8X8X8X8X8X8X8X8X8X",
"8X8X8X8X8X8X8X8X8X8X8X8X8X8X8X8X4XAX=XsX=.h.>.0 $ 2.H.`.U.K i W E u 6.u # 8 w J.<.V rXdX*XBX9XBX8X8X8X8X8X8X8X8X8X8X8X8X8X8X8X8X",
"8X8X8X8X8X8X8X8X8X8X8X8X8X8X8X8X4X6XsXnX|.-.0 -.J.U.2.T W W B.G.3.E 8 2 S.`.F.J.!.5..Xb.x.5X9XCX8X8X8X8X8X8X8X8X8X8X8X8X8X8X8X8X",
"8X8X8X8X8X8X8X8X8X8X8X8X8X8X8X8XBX*X*Xh.1.r 8._.7.H.H._.L.W B.U.Q S.W E E 3.`.U.OX8.h.@.V ,XGX&X8X8X8X8X8X8X8X8X8X8X8X8X8X8X8X8X",
"8X8X8X8X8X8X8X8X8X8X8X8X8X8X8X8X=XSX1X1.h.].J.J.3.H.G.U.G.V.U.U.G.[.m.E { E I.H.K./.M M rXcX>XCX8X8X8X8X8X8X8X8X8X8X8X8X8X8X8X8X",
"8X8X8X8X8X8X8X8X8X8X8X8X8X8X8X8XnXnX.XO (./.7.Y { I.I.M.;.V.~.G.T G.G.{ E u % & 2.U <.OXSXcX3XZX8X8X8X8X8X8X8X8X8X8X8X8X8X8X8X8X",
"8X8X8X8X8X8X8X8X8X8X8X8X8X8X8X6X7X.XdXiXg.U e 1 W.A.E 3.3.2.H.H.E 2 '.I.1 R  .y # L $XgX<XyXcX5X8X8X8X8X8X8X8X8X8X8X8X8X8X8X8X8X",
"8X8X8X8X8X8X8X8X8X8X8X8X8X8X8X6X*XVX;XuX$ N ; b @ 5 b | ( h h | F y q I 5 * D : @ H 9 oXyXdXnX7X*X4XsX8X9X4X9X9X8X8X8X8X8X8X8X8X",
"8X8X8X8X8X8X8X8X8X8X8X8X8X8X8X6XsXrXdXOXtX9 ; 4 D D ] ^ d.: n |  .D < 3 * < k h ! m L tXtXdXeXpXSXBX6X4X5XBXAXBX8X8X8X8XqX8XqXqX",
"8X8X8X8X8X8X8X8X8X8X8X8X8X8X8X6X*X1XdXdXN 0 [ [ [ S.R 6.] ] 9 [ [ D D j 5 j 3 : : H 4.g.>.oXeXrX*X%X4X9XBXZXBX4X8X8X8X8XqXqX8X8X",
"8X8X8X8X8X8X8X8X8X8X8X8X8X8X8X8XSX<XV 6 P ].W.I H.W.G.K M.m.K I H.] I q 5 H G ) H - 9 K.g.(.-.7 7XBXAX8X4X4X9X8X8X8X8X8XqXqX8X8X",
"8X8X8X8X8X8X8X8X8X8X8X8X8X8X8X7XX @.<.OX(./.H.W.Y.L.N.Q P.V.;.3.W.6.{ J ] D.| d.j ; ; R.g.g.<.1.&.n.4XBXBX8X9X8X8X8X8X8X8X8X8X8X",
"8X8X8X8X8X8X8X8X8X8X8X8X8X8X8XaX*X>.h.<.U ; W.U.S.Q T P.V.P.a P.I.M.[ [ Q.'.D.] b F 4 Q. X(.P 7 vXBXBX9X4X9XqXxX8X8X8X8X8X8X8X8X",
"8X8X8X8X8X8X8X8X8X8X8X8X8X7X7XaXyX-X6 7 0 _.G.U.Q & N.B.L.Q ;.V.`.U.I F 6.D.6.) q - - d.4.N 0 iX2X9X9X9X8XBX8X4X8X8X8X8X8X8X8X8X",
"8X8X8X8X8X8X8X8X8X8X8X7X7XaXaXaXrXMXtX#XN Y { E 2 2 S.G.K 3.U 3.F._.2.E [ F F 2 1 4 b q ; m ; uXaXvX8X5X5X8XBXxX8X8X8X8X8X8X8X8X",
"8X8X8X8X8X8X8X8X&XBX,X=X7X7XaXaXOXhX#Xw 2.E % q # { 3.I q [ [ [ w 3.E Y { 3.{ F @ m.< 1 ) [ $XtX|.ZX1X5XsXsXBX9X8X8X8X8X8X8X8X8X",
"8X8X8X8X8X8X8X8XHX=XZXvX,XnXaXrXhX#XU 8.% % u @ { I 1 q ` f.` L 7.:.K E I E M.E I.I ] 6.Q.H. .gXyX2XnX7XsX4X6X8X8X8X8X8X8X8X8X8X",
"8X8X8X8X8X8X8X8X%X8X&X7XnX1XbX<X].p F.^._.`.M.6.[ 6.D.| | ( ..K.H.E W G.3.3.I.3.u 6.S.S.H.Q.Q.R.<.<XSXnX|.SX4X8X8X8X8X8X8X8X8X8X",
"8X8X8X8X8X8X8X8X9XvX8X,XVX2X@.6 ].^.^.J.].F.H.E 6.I.Q.6.d.| f.4.U.B.M.~.P.V.Y.M.E % G.H.H.Q.H ' v l XX1XaX*XvXVX8X8X8X8X8X8X8X8X",
"8X8X8X8X8X8X8X8X8X4XFX,X$.@.x..X5.F.M._.E G.U.M.G.H.S.I A.6.2.F I.Y.V.L.P.P.~.~.`.8 F G.'.Q.) b ,  XM M XXGX*X8X8X8X8X8X8X8X8X8X",
"8X8X8X8X8X8X8X8XBXBX,XZX*X@.1.Z U 2.].W.I.U.E V.L.G.V.m.N.3.:.3.3.Y.L.V.P.P.P.L.G.U.u [ 6.6.Q.- ' ,.(.(.<.x aXZX8X8X8X8X8X8X8X8X",
"8X8X8X8X8X8X8X8X8X9XBX1XaX.Xx Z e 4.Y F `.E P.~.V.V.Z.V.T.~.C.;.T B.B.N.V.N.V.;.M.M.G.F - F b c ( ` ,.h.<.XXcX|.7X8X8X8X8X8X8X8X",
"6X6X6X8X8X8X8X8X8XsX5X7XaXbXXXr 9 # 1 q q H.U.G.8 V.T.T.V.{.V.;.W T T 3.T W G.E & 3.6.q - b ( c > c 9 7 OXMX1XVX8X8X8X8X8X8X8X8X",
"aXaX6X6X8X8X8XqX4XBX=X5XaXGX|.N $ F J J - 1 b 1 G.Y.% P.I.K S.6.J [ D.[ 5 5 I  .@ b h : k ! ~ X.. ' +X+XiXbXvX,X8X8X8X8X8X8X8X8X",
"pXpX7X6X8X8X8X8XAXBXAXsX1X;XMX$ w R ) - b 4 | 9 A.u 8 U.3.q 6.]  .] J D D ^ ^ 5 H 4 h n h g ! .. X> B +XSX2X7XVX8X8X8X8X8X8X8X8X",
"aXaX7X6X8X8X8XqX%X8X=XaXaXrX-XN H.U.I ] b 6.) I 8 % p i K K I { { { [ F y R ] 5 4 < * 3 G 3 h ..` R.> oXbX).7XZX8X8X8X8X8X8X8X8X",
"6X6X6X8X8X8X8X8XAX6XDXpXrXtXN J.U.3.6.6.[ I 6.{ % p B.& i 3.3.S.{ S.G.W F ] 6.R I < H ] 3 4 H * ~ f.f.,.Z bXnX5X8X8X8X8X8X8X8X8X",
"8X8X8X8X8X8X8X8X4XvX<X-XeXt /._.I.W I.G.F y 3.K L.Q Z.;.i K W.I.G.L.L.m.{ M.S.{  .6.] ] | ) D b 4 ( K.7 +X<X2XvX8X8X8X8X8X8X8X8X",
"8X8X8X8X8X8X8X8XZX1XaXh.!.Y $ 8 T ;.G.I.F U.`.`.~.T.Z.B.Q ;.[.U.L.G.L.S.{ { m.m.I.J I 6.] ] 6.] > m > gXiX<XnX4X8X8X8X8X8X8X8X8X",
"kXkXkXkXxXkX8X8X5Xb.x.h.J.J.q u N.V.`.E H.6.3.G.M.~.B.a ;.G.G.S.3.m.Y.Y.R y R I.W.H.] H | ) b H X.: ` v iXbXcX7X8X8XqX8X8X8X8X8X",
"kXkXkXkXxXkX8X8X7XX h.g.2.q `.m.% u # y H.6.# U.I.T T N.Q m.{ [ [ { I.W.] 1 R '.Q.Q.d.H ] d.] b : n f.,.l aX1XvX8X8XqX8X8XqX8X8X",
"kXkXkXkXxXkX8X8X=XpXM P w H.S.I.m.`.2 1 L b 4 S.F 8 8 N.[.H.[ ] - ] ] I  .b * | d.D.H 4 k h 3 : : n > B h.@.X vX8X8X8X8XqXqX8X8X",
"xXkXkXkXxXkX8X8XvX2XV $ 2.U.I.'.U.`.I.- b 4 4 q F 8 { G.H. .b | ) H b ^ | ^ j h } } k h k h k g n h c v l V aXaX8X8X8X8XqXqX8X8X",
"8X8X8X8X8X8X8X8XvXpX-X>.N A.6.+ W.6.A. .H ) 4 4 # ] M.'.H.4 b H X.3 3 n 3 h n 3 n k g h g g ! n : 3 = B $XXXaX7X8X8X8X8X8XqX8X8X",
"8X8X8X8X8X8X8X8XvX*XbXiXN e ; w M.E 6.W. .d.) [ [ { I.E q b 4 D.} 3 k G = * n h g : g S h g / _ n k c > B yX1X=X8X8X8XqXqXqX8X8X",
"6X8X8X8X8X8X8X8X5XvX-XoXgX$Xe # M.U.`.A.K.I d.[ E G.u 8 1 < _ ) _ G ^ } ! k k k g h n _ n h ..X.^ ! H m 7 l x vX8X8X8X8X8X8X8X8X",
"6X6X6X6X8X8X8X8XHX7XaXrXoXP L #XY.~.3.N.H.I ] 3.U.G.U.M.I.'. .| _ } X.} n : k _ n ! ~ } ~ G } } X.X.~ > l Z 1X7X8X8X8X8X8X8X8X8X",
"6X6X6X6X8X8X8X8X%X=XnXaX1.>./.K.G.T 8 U.S.] u G.U.G.Q N.U.m.] F _ ) | } 3 = G X.( X.^ _ } _ _ ! ^ X.c ~ gXiX2X5X8X8X8X8X8X8X8X8X",
"6X6X6X6X8X8X8X8X9XFX=X7XV >.1.<.w & G.H.6.q F S.G.E E I.'.2.; 4 | b ) d.( ^ | ~ | d.~ H d.| ( c d.( f.,.l yXGX*X8X8X8X8X8X8X8X8X",
"6X6X6X8X8X8X8X8X%X9X9X8XsX|.=.r 6 f.' ` ; ; ) ) b ) L R.( c n > . ( : ) _ H X._ ) d.| L 7 ,.5.>.  h.M V <XaX,X8X8X8X8X8X8X8X8X8X",
"8X8X8X8X8X8X8X8XBXAX8X9XAXBX4X1XbXOXv v B f.g.,.` L v ` m f z f B m > v c n ( f.( ' ( , iX>.7 V @.XX<X1XcX7X8XBX8X8X8X8X8X8X8X8X",
"8X8X8X8X8X8X8X8X8XqX4X4X8XBXsXnXcXNXyX|.Z O   M (.>.Z z z z z z 7 6 M z B @X( , c z Z h.uX<X<XyX<XyXnXnX7X5XBX7X8X8X8X8X8X8X8X8X",
"8X8X8X8X8X8X8X8X8XqX8X8X8X9X4X4X7X2XaXcXaXaX1XaXMXXXXXx x x x s x z M X V NX@XB iXl l bXXXcXcX7XSX2X,X5X,X5XvX4X8X8X8X8X8X8X8X8X",
"8X8X8X8X8X8X8X8XqX8X8X8X9X9X8X8X9XkXZX5X,X,X5XvXvX5XvXo o +.+.O.d x s X x <XNX<X2XcXSXcX,X7XZX7X7X7X7XsXvX8X5X8X8X8X8X8X8X8X8X8X",
"8X8X8X8X8X8X8X8X9X4X9X8X9X6XsX9X8XkXBX9XBXvXvX,X4XkXBXo d *.t.t.d &.x d O.3XGX2XcX,X,X2XGX9X5XvX4X7XvX6XAXBX4XAX8X8X8X8X8X8X8X8X",
"8X8X8X8X8X8X8X8X8X4XBXAX8XBXBX4X8XxX8X8XBX:XCX8X9XBX9X+.*.v.v.r.r.}.r.d O.3XFX>X9XcXjXFX>XkXkX8XkX9X8X4X9XBX9X8X8X8X8X8X8X8X8X8X",
"8X8X8X8X8X8X8X8XAX4X9X9X4X9XBX4XkXvX9XkX5Xw.z.#.&.z.w.o r.n.n.r.*.v.r.o.d r.e.c.c.#.q.9XmXCX9XkXxX4XAXxX4XBX8X9X8X8X8X8X8X8X8X8X",
"8X8X8X8X8X8X8X8X8X8X8X8X8X8X8X8X9X>Xq.q.z.#.&.u.#.a.p.+.+.r.w.r.+.r.+.d o.d d q.q.q.q.q.e.v.:XCX8X8XqX8X8X8X8X8X8X8X8X8X8X8X8X8X",
"8X8X8X8X8X8X8X8X8X8X8X8X8X8X8X8XZXs.a.u.%.c.9.$.i.j.q.O.#.p.z.p.#.w.r.e.}.c.O.O.p.#.q.a.q.O.z.9X8XqXqX8X8X8X8X8X8X8X8X8X8X8X8X8X",
"8X8X8X8X8X8X8X8X8X8X8X8X8X8X8X8Xu.$.%.u.j.y.y.i.X C %.$.k.c.#.d c.p.O.O.e.p.9.9.#.q.p.q.9.q.u.q.8XqX8X8X8X8X8X8X8X8X8X8X8X8X8X8X",
"8X8X8X8X8X8X8X8X8X8X8X8X8X8X8X8X#.x.%.u.l.A %.y.i.j.y.%.9.9.C s p.k.9.$.e.i.q.p.k.$.9.j.c.q.#.s.8XqX8X8X8X8X8X8X8X8X8X8X8X8X8X8X",
"8X8X8X8X8X8X8X8X8X8X8X8X8X8X8X8X9Xu.a.q.%.j.i.i.0.9.A x A e.p.a.%.9.q.e.i.q.9.q.p.q.q.s.&.#.c.:X8X8X8X8X8X8X8X8X8X8X8X8X8X8X8X8X",
"8X8X8X8X8X8X8X8X8X8X8X8X8X8X8X8XBX|.b.c.p.e.e.i.e.j.k.9.e.e.$.#.j.i.9.9.i.p.p.p.O.q.q.&.s.n.3XkX8X8X8X8X8X8X8X8X8X8X8X8X8X8X8X8X",
"8X8X8X8X8X8X8X8X8X8X8X8X8X8X8X8X9XHX:X:X:Xr.e.k.9.k.e.0.e.a.p.p.i.9.q.i.p.a.p.$.b.q.p.>XkX,X,XCX8X8X8X8X8X8X7X7X8X8X8X8X8X8X8XqX",
"8X8X8X8X8X8X8X8X8X8X8X8X8X8X8X8XxX%XxXCXlXlXlXlXlXmXlXzXlXmXlXjXcXzXjXjX3XzXcXjX9XjXkXCXCXkX8X8X8X8X8X8X8X8X7X7X8X8X8X8X8X8XqXqX"
};
