/* XPM */
static char *_7ae2e9d0cbc492888d387cf535853ca24FvnKFbrqplsEd2[] = {
/* columns rows colors chars-per-pixel */
"64 64 226 2 ",
"   c #3D393C",
".  c #443C37",
"X  c #4C421F",
"o  c #4C4229",
"O  c #544A2C",
"+  c #594B2D",
"@  c #52462D",
"#  c #5D512B",
"$  c #494339",
"%  c #534534",
"&  c #554B34",
"*  c #5A4D34",
"=  c #544B3C",
"-  c #5B4D3C",
";  c #54463C",
":  c #5C5234",
">  c #5C523D",
",  c #5A553A",
"<  c #625534",
"1  c #655936",
"2  c #62553C",
"3  c #645A3B",
"4  c #6A5D3C",
"5  c #6A5E36",
"6  c #6D623D",
"7  c #6F6037",
"8  c #73683B",
"9  c #3E3B4A",
"0  c #3B3744",
"q  c #413C42",
"w  c #403D4C",
"e  c #423F50",
"r  c #3D444C",
"t  c #3F4650",
"y  c #45414C",
"u  c #43494E",
"i  c #4B4748",
"p  c #554D42",
"a  c #5A4D43",
"s  c #514D4C",
"d  c #555145",
"f  c #5D5343",
"g  c #57544D",
"h  c #5C554A",
"j  c #5D594D",
"k  c #5F5943",
"l  c #434451",
"z  c #454C52",
"x  c #4C4C54",
"c  c #454D58",
"v  c #4C4C5A",
"b  c #4B4753",
"n  c #4D545C",
"m  c #4A5559",
"M  c #5C5A53",
"N  c #51555D",
"B  c #515A5C",
"V  c #5B5658",
"C  c #514F5A",
"Z  c #635544",
"A  c #655A44",
"S  c #6A5D44",
"D  c #63554A",
"F  c #645B4B",
"G  c #6A5D4A",
"H  c #635D53",
"J  c #6A5E53",
"K  c #635A55",
"L  c #6C6143",
"P  c #6C624C",
"I  c #6B664A",
"U  c #726543",
"Y  c #746944",
"T  c #796C45",
"R  c #72654D",
"E  c #756A4C",
"W  c #7B6D4B",
"Q  c #7E7046",
"!  c #7D734C",
"~  c #646055",
"^  c #6B6353",
"/  c #65625C",
"(  c #6C655B",
")  c #6D6959",
"_  c #726553",
"`  c #756A53",
"'  c #7A6C53",
"]  c #716658",
"[  c #746C5B",
"{  c #7A6D5B",
"}  c #777055",
"|  c #7D7253",
" . c #7D725B",
".. c #4E5562",
"X. c #4C5961",
"o. c #535462",
"O. c #5A5564",
"+. c #535B63",
"@. c #5A5C64",
"#. c #545B69",
"$. c #5C5D6B",
"%. c #554D62",
"&. c #635C6B",
"*. c #576065",
"=. c #5C636B",
"-. c #5E6064",
";. c #5D6670",
":. c #61646D",
">. c #62686B",
",. c #6B6865",
"<. c #756D62",
"1. c #786D64",
"2. c #767166",
"3. c #7B7362",
"4. c #7B746A",
"5. c #79736A",
"6. c #646371",
"7. c #636C74",
"8. c #6C6775",
"9. c #6B7177",
"0. c #7C7974",
"q. c #766E7D",
"w. c #82744D",
"e. c #84794C",
"r. c #827453",
"t. c #857A54",
"y. c #8A7C55",
"u. c #82745A",
"i. c #857A5B",
"p. c #8B7D5B",
"a. c #897655",
"s. c #917E5D",
"d. c #827462",
"f. c #837B63",
"g. c #8A7C63",
"h. c #847C6A",
"j. c #8C7D6A",
"k. c #837769",
"l. c #847D72",
"z. c #827F7A",
"x. c #7F817C",
"c. c #8D8256",
"v. c #8E825C",
"b. c #91845E",
"n. c #95895F",
"m. c #8D8263",
"M. c #8C836B",
"N. c #868168",
"B. c #928563",
"V. c #958964",
"C. c #998B65",
"Z. c #92856A",
"A. c #958A6C",
"S. c #9A8D6B",
"D. c #9E906C",
"F. c #8C8474",
"G. c #8A857B",
"H. c #8B8678",
"J. c #928672",
"K. c #948C74",
"L. c #9A8E73",
"P. c #938C7C",
"I. c #9A8F7D",
"U. c #9B9174",
"Y. c #9D9579",
"T. c #A59A76",
"R. c #ADA07D",
"E. c #7B7A8B",
"W. c #7B8386",
"Q. c #8D8B84",
"!. c #8C8B8B",
"~. c #878886",
"^. c #938D83",
"/. c #928D89",
"(. c #988F86",
"). c #959285",
"_. c #9A9383",
"`. c #95928C",
"'. c #9A958C",
"]. c #9D9A8D",
"[. c #9E9985",
"{. c #898B94",
"}. c #928D93",
"|. c #8A9599",
" X c #959594",
".X c #999693",
"XX c #979994",
"oX c #9C9B95",
"OX c #95969A",
"+X c #969C9C",
"@X c #9C9C9C",
"#X c #9B959F",
"$X c #A29C8C",
"%X c #A59A86",
"&X c #A29C94",
"*X c #A29E9B",
"=X c #96A099",
"-X c #9EA09C",
";X c #A6A18A",
":X c #A5A194",
">X c #ABA595",
",X c #A4A19C",
"<X c #AAA49B",
"1X c #ADAA9E",
"2X c #B2AB9A",
"3X c #8F97A3",
"4X c #949BA2",
"5X c #999DA1",
"6X c #9B9CA1",
"7X c #9A9BA9",
"8X c #9598A6",
"9X c #9C9FB2",
"0X c #A19EA4",
"qX c #9CA1A4",
"wX c #99A4A6",
"eX c #9BA0B3",
"rX c #A3A2A2",
"tX c #ACA9A4",
"yX c #A3A5AA",
"uX c #ACACAA",
"iX c #A8A7A4",
"pX c #B2ABA2",
"aX c #B6B2AB",
"sX c #A5A8B2",
"dX c #B5B5B1",
"fX c #B2AFBA",
/* pixels */
"@X@X@X@X@X@X@X@X@X@X@X@X@X@X@X@XoXoXoX@X@X6X6X5X{.yXXXXX:X[.;X%XI.;X).oX0XyX{.qX5X+X@X@X@X@X@X@X@X@X@X@X@X@X@X@X@X@X@X@X@X@X@X@X",
"@X@X@X@X@X@X@X@X@X@X@X@X@X@X@X@XoXoXoX@X@X6X5X5XsXOX`.tX:X$X[.` A [.pXXX6XOXsX+X6X+X@X@X@X@X@X@X@X@X@X@X@X@X@X@X@X@X@X@X@X@X@X@X",
"@X@X@X@X@X@X@X@X@X@X@X@X@X@X@X@XoXoXoX@X@X6X6X6X}.-X,X1X[.N.N.K.I P '.'.rX7X+XqX+X@X@XoX@X@X@X@X@X@X@X@X@X@X@X@X@X@X@X@X@X@X@X@X",
"@X@X@X@X@X@X@X@X@X@X@X@X@X@X@X@XoXoX@X@X@X6X6X6X@XiX'.).$XJ. .N.N.^ d '. X!.yX6X@X@X@X@X@X@X@X@X@X@X@X@X@X@X@X@X@X@X@X@X@X@X@X@X",
"@X@X@X@X@X@X@X@X@X@X@X@X@X@X@X@X@X@XoX@X@X@X@X@X X`.<X$Xf.f.A.m.f. .N.~ p *XrX X@X@X@X@X@X@X@X6X@X@X@X@X@X@X@X@X@X@X@X@X@X@X@X@X",
"@X@X@X@X@X@X@X@X@X@X@X@X@X@X@X@X@X@X@X@X@X@X@X@XtX).H.[ } Z.V.v.Y.I > [ 2.M oXrX@XoX@X@X@X@X@X@X@X@X@X@X@X@X@X@X@X@X@X@X@X@X@X@X",
"@X@X@X@X@X@X@X@X@X@X@X@X@X@X@X@X@X@X@X@X@X@XoXoX:X:XF.G R E U V.m.Y I $ H ^.,X`.oXoXoX@X@X@X6X6X@X@X@X@X@X@X@X@X@X@X@X@X@X@X@X@X",
"@X@X@X@X@X@X@X@X@X@X@X@X@X@X@X@X@X@X@X@XoXoXoXoX^.F S E p.D.b.w.| Y O > F /.<X&XoXoXoXoX@X@X6X6X@X@X@X@X@X@X@X@X@X@X@X@X@X@X@X@X",
"@X@X@X@X@X@X@X@X@X@X@X@X@X@X@X@X~.dX`.XXtX`.].:Xo  . .| B.b.y.w.T V.m.f.f.f F ].H.tX].,X.X@X6X6X@X@X@X@X@X@X@X@X@X@X@X@X@X@X@X@X",
"@X@X@X@X@X@X@X@X@X@X@X@X@X@X@X@XrXoX@XoX`.1X$X> h.' O 4 S.V.w.Q T.! p.M.[ ^ f = ^ G.:XoXoX*X0X0X@X@X@X@X@X@X@X@X@X@X@X@X@X@X@X@X",
"@X@X@X@X@X@X@X@X@X@X@X@X@X@X@X@XtX~.,X'.( ) [ > @ u.A.D.V.Y 8 Q Y 3 i.S & Z Z F.J ^ $X'.<X*X X X@X@X@X@X@X@X@X@X@X@X@X@X@X@X@X@X",
"@X@X@X@X@X@X@X@X@X@X@X@X@X@X@X@XoXoX*X:X^.^ > ` Z.A.W U w.t.c.c.! Y 4 1 M.%Xk.J.%X3.l.l.l.0. XuX@X@X@X@X@X@X@X@X@X@X@X@X@X@X@X@X",
"@X@X@X@X@X@X@X@X@X@X@X@X@X@X@X@X`.tX2.( k.G ` L.i.y.y.D.C.w.t.V.Y r.r.' ` d.Z.J.g.j.k.P.2.2.!..X@X@X@X@X@X@X@X@X@X@X@X@X@X@X@X@X",
"@X@X@X@X@X@X@X@X@X@X@X@X@X@X@X@X.X'.( l.%Xg.Z.Z.p.p.y.C.V.y.V.V.b.T.m.' ' { j.j.j.J.A F h G.tX*X@X@X@X@X@X@X@X@X@X@X@X@X@X@X@X@X",
"@X@X@X@X@X@X@X@X@X@X@X@X@X@X@X@XdXG.p F M.j.u.U r.C.V.y.Q y.D.v.Q b.B.u.' R - * R { R ` F.<X<X`.@X@X@X@X@X@X@X@X@X@X@X@X@X@X@X@X",
"@X@X@X@X@X@X@X@X@X@X@X@X@X@X@X@X`.<X^.^ [ u.2 + B.v.w.t.! w.B.v.Q O A.Z.* ` d.G - G I._.1X&X^.,X@X@X@X@X@X@X@X@X@X@X@X@X@X@X@X@X",
"6X@X@X@X@X@X@X@X`.XX@X@X@X6X@X XQ.<X:X_.P & 2 * o 3 1 T ! # 1 ! Y 1 3 P k f h p . [ p ^.<X1X'.:XXX@X@XOX@X@X@X@X6X@X6X@X@X@X@X@X",
"5X5X+X+X@X@X@X@X-X-X@X@X@X6X0X@XpX^.P.:X[.> , : 2 R 4 | r.: : | W , : > > f h p ( ^ ; H $X_.>X].-X-X-X@X@X@X6X6X6X6X6X@X@X@X@X@X",
"5X5X@X@X@X@XoX@X@X@X@XXX6XyXyX0X^.1X>X$Xk & I M.} m.| | r.4 4 E | 6 1 > * > h d $ F 4.<.h.F _.;XQ.XX-X-X@X@X6X6X6X6X6X@X@X@X@X@X",
"5X5X@X@X@X@XoXoXXXXXXX@X@X6XOX!.'.H p = h.f.A.} m.S.m.| r.r.W T i.! E L 2 A ^ ) a ; p k.J.J.h.F ( x.@XrX@X@X@X@X6X6X6X@X@X@X@X@X",
"6X6X@X@X@X@X@X@X@X@X@X@X@XOX!.0.( 2.4._.f.K.M.U.A.m.p.t.v.B.a.r.b.c.r.W '  .d.k.- f D F.d.F.3.^ g 0.oXrX@XXX@X@X6X6X6X@X@X@X@X@X",
"6X@X@X@X@X@X@X@X-X-X@X@X@X@XXX!.j ^ F.^ P I N.m.m.E | V.S.p.! B.C.v.W W m.S.g.d._ f Z { h.J.f.F <.~.oX-XoX@X@XyX6X6X6X@X@X@X@X@X",
"@X@X@X@X@X@X@X@X@X@X@XoX@X,XrX*X).^ = k A N.m.U.E 3 r.A.B.r.E b.n.b.W T i.i.' R G * A A  . .` > ).XXoXoX@X@X0X0X6X6X@X@X@X@X@X@X",
"@X@X@X@X@X@X@X@XoX@X@X@X@X@X@XoX$X$X[.k &  .i.L : 3 v.v.r.r.E r.y.n.y.Y E S 2 3 * & - * * 1 > 2 >X,XoXoX@XrX@XXX6X6X@X@X@X@X@X@X",
"@X@X@X@X@X@X@X@X!.tXoX`.@XiX/.oXH.2Xk > ' } + : + r.w.6 < W W W 7 w.Y Y r.w.W U + E S R * ' u.%XF.aX'.oXiX XrX X@X@X@X@X@X@X@X@X",
"@X@X@X@X@X@X@X@XdX!.oXoXuX.XtX:X>X> K.: O 3 U X W W 4 4 E y.W E T Q T w.W w.p.Y i.R ' L.u.A.Z.P >X`.<X'.(.*X.XuX@X@X@X@X@X@X@X@X",
"@X@X@X@X@X@X@X@X~.rX,X,Xz.,X&X^.> M.} M.L.Z.Z.i.r.Q W Y r.W W w.v.Q w.b.Q t.A.r.U u.g.m.Z.g.f.Y.h.4.).1X*XiXrX!.@X@X@X@X@X@X@X@X",
"@X@X@X@X@X@X@X@XuX@XoX*X&Xg d ).h.Y.Y.K.m.m.t.r.T v.S.w.r.Y w.W n.y.y.C.p.p.S.v.r.1 | Z.Z.g.Z._ 3.h K /.&X/.oXrX@X@X@X@X@X@X@X@X",
"@X@X@X@X@X@X@X@X~.tX.X/ 5.G.G.F. .i.M.M.u.m.V.t.p.V.V.w.p.t.r.U b.V.v.V.S.b.V.A.S.3 S E M.M.Z.S = ^ H.d / *X/.*X@X@X@X@X@X@X@X@X",
"@X@X@X@X@X@X@X@XrXiX`.Q.H 2.( F  .U.A.' S.T.4 v.C.b.y.t.B.p.w.W t.V.v.v.S.b.B.V.m.A.| ,  .` ' F.- F 4.l.G.,./ *X@X@X@X@X@X@X@X@X",
"@X@X@X@X@X@X@X@X*X~.*XoX`.H j = } f.L : m.6 T.p.t.b.p.s.s.s.a.a.W y.t.p.t.t.m.t.p.i.N.| L A P > f <.F 4.2.K /.oX@X@X@X@X@X@X@X@X",
"@X@X@X@X@X@X@X@X@XuX.XoX<X`.j = > O : 3 * S.p.B.4 B.B.s.s.T.B.W T T r.t.Y | V.E O i.' & Z = % [ > = f d K ^.tX.X@X@X@X@X@X@X@X@X",
"=X=X+X+X@X6X6X6X!.6XoXoX<X'.d f * ` 2 * Z - A A u.S.< p.B.E g.E 6 ! p.E : 2 E ' o A F a a p D <.F P Z P.].].,X`.@X@X@X@X@X@X@X@X",
"=X=X=X=X+X6X6X6XqXyX@XXXoX'.j =  .' * * Z D _ A g.2 1 B.W 4 r.T | W U 3 3 E R > Z - % ; K J D a k.M.= 3.&X`.oXuX@X@X@X@X@X@X*X*X",
"=X=X+X+X@X@X6X6X}.@X.XoX<XP.^ K.A.r.S S G _ d.R 3 + Y 5 6 T T r.! ! Q 6 3 U E 1 > - Z F D a a h J d.F.F ^.:X`..X@X@X@X@X@X@X@X@X",
"@X=X@X@X@X@X6X@X@X,X,X<X0.[ [ A.i.r.i.u.G ` g.' 1 6 t.# 8 w.Q b.! c.v.! 6 E r.| R 2 A ` J F D a F F [ <.4.~ *XoX@X@X@X@X@X@X*XoX",
"@X@X@X@X@X@X@X@X*X`.&X$X^ N.;Xf.| t.B.r.S ' g.' B.Y c.e.8 8 b.b.v.v.v.t.! i.v.| u.P R  .{ ` _ D a J <.<.. 1X`..X@X@X@X@X@XoXoXoX",
"@X@X@X@X@X@X@X@X`.&XF.k.F & @ 2 V.V.p.Y ' Z.m.B.D.b.c.y.w.w.V.n.n.v.v.v.r.| t.t.N.u. . .{ { { _ [ F p H <XQ.iX.X@X@X@XoXoXoXoXoX",
"@X@X@X@X@X@X@XoX2.'.4.h.N.3 & m.v.v.W 4 g.Z.| S.p.C.e.8 e.n.p.v.r.t.V.V.E 3 E Z.L.g.P A  .j.{ F <.1.$ ^ H ,X.XtX@X@X@XoXoXoXoXoX",
"@X@X@X@X@X@X@XoXM <.3.3.A i.V.: < 4 < : g.u.* Z.S.U T y.T p.W | W ! B.A.E : E K.g.J. .A G _ _ [ D ; H 2.<.i *X.X@X@X@X@XoXoXoXoX",
"@X@X@X@X@X@X@X*X/.( D P M.U.V.V.r.S + ` ` 2 * Z.L 4 1 r.S.g.u.| @ ' ' E u.2 @ { k.d.{ { = a f D . J p $ 0.,.,.M @X@X@X@XoXoXoXoX",
"@X@X@X@X@X@X@X*X1Xh F  .f.| B.A.T.m.A 2 Z - % S 1 1 r.B.Z.u.2 ` ` P A P { P Z F { _ F ^ D D a a J a a K p M M oX@X@X@X@X@XoXoXoX",
"@X@X@X@X@X@X@X*X/.(.J  .' i.+ m.Z.Z.` - G G A * : | a.U.j.* A `  .- - G > f F ; F D ; D D D a D D ; a p h oXoX.X@X@X@X@XoXoX*XoX",
"@X@X@X@X@X@X@XoXtX<X_.k R & 2 i.' g.i.A { { ` R | W B.| S A - j._ & Z ^ & % Z ; = D = D D f a 1.] F a p h g .XiX@X@X@X@XoXoX*X*X",
"@X@X@X@X@X@X@XoX/.<X<XM.%XA o i.Z.m.i.' j.' ' r.E p.1 1 1 & _ _  .G P _ Z > Z F - F f ^ G G D { _ k.] f H $ M i @X@X@X@X@X@X@X*X",
"@X@X@X@X@X@X@X@XtX'.'.>X% f.A.U.Z.p.r.m.U.| L r.D.v.b.w.m.L.{  .{ { { ` Z % Z { A G A ` ` { G P k.3.3.[ d g g @X@X@X@X@X@X@X@X*X",
"+X@X@X@X@X@X@X@X X*X<X<.^ N.K.i.Y ! a.A.Z.W 4 t.v.c.T v.D.i.E 2 R R  .' > @ A ' R ` R  .R  .R S G ` 3.) ^ :XoXoX@X@X@X@X@X@X@X@X",
"@X@X@X@X@X@X@X@X.X,X^./ 2.4.P I 2 i.m.Z.R 1 1 m.B.! ! m.S.| > k  .Z _ f._ R } P ' |  . .2 R ' _ [ F 3.h.~ d .XoX@X@X@X@X@X@X@X@X",
"@X@X@X@X@X@X@X@X@X.X@XoX~.,.M j ) h.^ k & I P  .S ` ^ F.^ h H p . ( = [ [ F [  .P '  . .> > G { M g ,.M / !.@X@X@X@X@X@X@X@X@X@X",
"@X@X@X@X@X@X@X@XrX@X0XiX@X X XXX`.d ~ P.F [ F.) ^ H H 5./ g s   K g $ M H H F 3.F ) h.F f P.] p / ,.!. X XrX@X!.@X@X@X@X@X@X@X@X",
"@X@X@X@X@X@X@X@X@XXX@X@X@XXX@XiX1X).'.].~ p d = F.^ H s s s i   q   s i g G.~ p $ p ( h H pX&X^..X!.@XXX XrXrXrX@X@X@X@X@X@X@X@X",
"@X@X@X@X@X@X@X@X@X@X@X0X@XXXOXXX`.tXXX`.1X1X).&XaX(.^.$ . y y 0 q q b   i *X/.,.tX( $ `.tX.X.XiX,X@X@X@X@X@X@XrX@X@X@X@X@X@X@X@X",
"@X@X@X@X@X@X@X@X@X@X@XrXrX@X@X@XiX`..X@XoX`.oXoX*X.X*X.   i b y e w 0 0 b OX0X}.}.rXXXyX X XyX XXX@X@XrXrX@XXX@X@X@X@X@X@X@X@X@X",
"@X@X@X@X@X@X@X@XXXXXXXXX@X@X@X@X@XOXuXiX.XXXaXtX}.#X0Xq q V &.&.9 %.9 9 v }.fX6X7X{.{.7X6XsX6X6X@XrXXXXX@XXX@XiX@X@X@X@X@X@X@X@X",
"@X@X@X@X@X@X@X@X@X@X@X@X@X@X@X@X}.+X+X{.yXyX@X!.@X0X#Xb V 8.8.&.O.E.o.0 w {.sX8X8X7XyXyX|.7X4X4X XiX@X@XiX@X@X@X@X@X@X@X@X@X@X@X",
"@X@X@X@X@X@X@X@X@X@X@X@X@X@X@X@XqX+XqX4X4X=.v @.C @.O.0 @.q.8.O.O.8.o.l e O.o.@.N @.n 4XsX4XsX4XOXuXOXXX@XOX@X@X@X@X@X@X@X@X@X@X",
"@X@X@X@X@X@X@X@XXX@XXX X@X@XXX6XW.=.m n +.n o.=.l :.o.o.x &.O.O.b $.N 9 w 0 9 o.v +.n n +.z =.+X X@X@X@X@XXXXX0X@X@X@X@X@X@X@X@X",
"@X@X@X@X@X@X@X@X@XrX@XXX@XrX@XOX7.=.=.7.7.+.n n 6.6.6.l O.&.8.6.x =.$.$.9.:.z l +.n +.>.=.n z z OX@X@XXX@XrX@X@X@X@X@X@X@X@X@X@X",
"@X@X@X@X@X@X@X@X@X@X@X@X@X@X~.>.n +.=.7.7.;.#.X.r l $.v 6.:.b 0 9.>.u r *.7.+.n n c =.=.u u *.+.>.~.rX0X@X@XXX@X@X@X@X@X@X@X@X@X",
"@X@X@X@X@X@X@X@XXXXXrXrX@X@X~.@.@.+.n n n n ..#.c c o.v v 9.y y 9.>.x z :.9.=.+.n z n *.B B +.N -.~.rXrX@X@XXX@X@X@X@X@X@X@X@X@X",
"@X@X@X@X@X@X@X@XrX@X@X@XXXrXiX XN z z +.=.n m n #.+.X.t r :.u @.B B m m +.*.+.n ;.@.n N @.z u @.OXrX@XXX@XiXrX@X@X@X@X@X@X@X@X@X",
"@X@X@X@X@X@X@X@XrX@X@X@XXX@XiXrXOX9.N N n c X.7.X.n ;.z +.@.m N B +.+.n c n #.$.v o.n #.:.+.:.6XqXiX@XXX@X@X@X@X@X@X@X@X@X@X@X@X",
"@X@X@X@X@X@X@X@XOX@X@X@XrX@X XOX6XOXOX5X{.7.X.m X.X.+.t B m B B m n *.*.+.+.#...#.o.$.E.7X7X8X6X!.XX@X@X@XXXXXrX@X@X@X@X@X@X@X@X",
"@X@X@X@X@X@X@X@XrXrXXX@XiX@XXXrX@X@X6XqX4X3X3X4X|.wX|.wXwXwX+X|.qX+X4X4X3X7XeX8X9X3X7XsX7X7XyXOX0X@XXX@XrX@XXXrX@X@X@X@X@X@X@X@X"
};
