/* XPM */
static char *a5229c21c6fb42f1cb7841bf29274fcfk0u7Iwlgn78skVj9[] = {
/* columns rows colors chars-per-pixel */
"64 64 241 2 ",
"   c #3C333A",
".  c #332B37",
"X  c #423839",
"o  c #5A4538",
"O  c #664C38",
"+  c #6B533C",
"@  c #695538",
"#  c #745A3C",
"$  c #745A3B",
"%  c #6B4E2E",
"&  c #3B3846",
"*  c #453D47",
"=  c #3F4652",
"-  c #3B414D",
";  c #474349",
":  c #584A47",
">  c #5D534E",
",  c #444B55",
"<  c #4C4C5A",
"1  c #464955",
"2  c #554C57",
"3  c #47515B",
"4  c #4C545D",
"5  c #4A5358",
"6  c #53555C",
"7  c #54595F",
"8  c #5E5457",
"9  c #624C44",
"0  c #674D46",
"q  c #645244",
"w  c #6E5A45",
"e  c #65544C",
"r  c #6B554C",
"t  c #6C5A4D",
"y  c #6A5647",
"u  c #725742",
"i  c #735B44",
"p  c #795E43",
"a  c #735C4C",
"s  c #795E4B",
"d  c #705549",
"f  c #655A53",
"g  c #6C5B53",
"h  c #6A5858",
"j  c #735C54",
"k  c #745D59",
"l  c #775B55",
"z  c #7C6244",
"x  c #74614B",
"c  c #7C644C",
"v  c #796648",
"b  c #6D625C",
"n  c #6C6158",
"m  c #756253",
"M  c #7C6353",
"N  c #7C6C53",
"B  c #73655A",
"V  c #79645A",
"C  c #74695C",
"Z  c #7C6B5B",
"A  c #716A57",
"S  c #726853",
"D  c #4D5561",
"F  c #4E5862",
"G  c #535B64",
"H  c #5A5C64",
"J  c #555D69",
"K  c #585665",
"L  c #615D6B",
"P  c #645A62",
"I  c #5B646C",
"U  c #5B6066",
"Y  c #5C6571",
"T  c #696567",
"R  c #746563",
"E  c #7B6661",
"W  c #766A64",
"Q  c #7C6B64",
"!  c #796D6A",
"~  c #79726C",
"^  c #636471",
"/  c #636C75",
"(  c #6D6A78",
")  c #746D7C",
"_  c #767377",
"`  c #6C7178",
"'  c #836949",
"]  c #8A734B",
"[  c #816653",
"{  c #856C53",
"}  c #836B5B",
"|  c #886E55",
" . c #8D7455",
".. c #8C745A",
"X. c #89775B",
"o. c #947C55",
"O. c #91775B",
"+. c #947C5C",
"@. c #987C58",
"#. c #917A4E",
"$. c #836B63",
"%. c #886F66",
"&. c #847464",
"*. c #8B7464",
"=. c #8C766B",
"-. c #8C7A6D",
";. c #877867",
":. c #917664",
">. c #937C63",
",. c #997E63",
"<. c #937B6B",
"1. c #9A7E6B",
"2. c #8C7D74",
"3. c #867A74",
"4. c #947E73",
"5. c #997E74",
"6. c #9B835C",
"7. c #9F885D",
"8. c #998259",
"9. c #A1865E",
"0. c #958164",
"q. c #9C8464",
"w. c #95826C",
"e. c #9C846C",
"r. c #9C8967",
"t. c #8D8374",
"y. c #8D837A",
"u. c #958474",
"i. c #9A8473",
"p. c #9D8B74",
"a. c #93847B",
"s. c #9B847B",
"d. c #958B7A",
"f. c #9C8A7B",
"g. c #948876",
"h. c #9D927D",
"j. c #8E826C",
"k. c #A28563",
"l. c #A38A64",
"z. c #A1866A",
"x. c #A38B6B",
"c. c #AA8D68",
"v. c #AB936C",
"b. c #A5926E",
"n. c #B29A6D",
"m. c #B1936D",
"M. c #A18674",
"N. c #A48C73",
"B. c #A38C7B",
"V. c #A88D77",
"C. c #AB9473",
"Z. c #AC947A",
"A. c #AE9A7D",
"S. c #A99675",
"D. c #B39673",
"F. c #B39B74",
"G. c #B1967A",
"H. c #B49C7B",
"J. c #BA9E7A",
"K. c #BA9D76",
"L. c #BCA37C",
"P. c #B9A47B",
"I. c #C1A67D",
"U. c #C5AA7D",
"Y. c #807F84",
"T. c #7A8288",
"R. c #8B8B8B",
"E. c #898687",
"W. c #948B84",
"Q. c #9A8C84",
"!. c #938D8A",
"~. c #998E8A",
"^. c #938583",
"/. c #9D9182",
"(. c #95918C",
"). c #9C948C",
"_. c #979387",
"`. c #8C8A93",
"'. c #938F92",
"]. c #8D949A",
"[. c #959595",
"{. c #9B9593",
"}. c #9C9C96",
"|. c #95959A",
" X c #999699",
".X c #959A9C",
"XX c #9C9C9C",
"oX c #969996",
"OX c #8E908D",
"+X c #A38B82",
"@X c #A39384",
"#X c #AC9A82",
"$X c #A3948A",
"%X c #A49B8D",
"&X c #AC9D8C",
"*X c #A79684",
"=X c #B39C83",
"-X c #B99E85",
";X c #B29B8A",
":X c #A49B94",
">X c #AB9D93",
",X c #A29C9B",
"<X c #A79B98",
"1X c #B09F97",
"2X c #9CA19D",
"3X c #B5A284",
"4X c #BCA383",
"5X c #B3A38C",
"6X c #BBA48B",
"7X c #BEAA8D",
"8X c #A4A19D",
"9X c #ABA29B",
"0X c #A9A295",
"qX c #B5A798",
"wX c #AFA692",
"eX c #949CA3",
"rX c #9C9CA1",
"tX c #979EA8",
"yX c #A29FA2",
"uX c #9EA2A3",
"iX c #9BA4AC",
"pX c #97A1A3",
"aX c #A3A2A3",
"sX c #ACA5A3",
"dX c #A2A4AA",
"fX c #ABAAAC",
"gX c #ABA7A8",
"hX c #B4ABA5",
"jX c #BCB3AC",
"kX c #AAA9B1",
"lX c #B2B1B7",
"zX c #C2A583",
"xX c #C3AA84",
"cX c #C3AA8B",
"vX c #C4A78A",
"bX c #C2AB94",
"nX c #CAAF92",
"mX c #C8B196",
"MX c #CCB490",
"NX c #C3B2A8",
"BX c #D7C1A3",
/* pixels */
"XXXXXXXXXXXXXXXXXXXXXXXXXXXXXX}.}.}.}.}.XXrXrXrXE.dX X{.9X%X%X/.d.wX_.[.aXfX`.rXrXXXXX}.,X,X<X,XXXXXXXXXXXXXXXXXXXXXXXXXXXXXXXXX",
"XXXXXXXXXXXXXXXXXXXXXXXXXXXXXX}.}.}.}.}.XXrXrXrXlXgX[.,X0X%X&Xd.Z t.hX,X[.[.kXrXrXXXXX}.}.,X,X,XXXXXXXXXXXXXXXXXXXXXXXXXXXXXXXXX",
"XXXXXXXXXXXXXXXXXXXXXXXXXXXXXX}.}.}.}.XXXXrXrXrXrXR.{.hX%Xh.&Xh.&.A Q.9XaX[.aXrXrXXX}.}.}.,X,X,XXXXXXXXXXXXXXXXXXXXXXXXXXXXXXXXX",
"XXXXXXXXXXXXXXXXXXXXXXXXXXXXXX}.}.}.XXXXXXrXrXrXrX X:X:Xg.w.#X5Xg.;.C ~.9XyXR.yXXXXX}.}.}.XXXXXXXXXXXXXXXXXXXXXXXXXXXXXXXXXXXXXX",
"XXXXXXXXXXXXXXXXXXXXXXXXXXXXXXXXXXXXXXXXrXrXrXXX{.9X:X/.#X3XA.3XS.qXt.e f ,XgX,X}.}.}.}.}.XXrXrXXXXXXXXXXXXXXXXXXXXXXXXXXXXXXXXX",
"XXXXXXXXXXXXXXXXXXXXXXXXXXXXXXXXXXXXXXXXXXXXXX}.!.:X@Xj.S.A.b.P.7Xx &.$XW.W !.{.,X}.}.}.}.XXrXrXXXXXXXXXXXXXXXXXXXXXXXXXXXXXXXXX",
"XXXXXXXXXXXXXXXXXXXXXXXXXXXXXXXXrXrXrXXXXXXX,X,XhX@Xu.N N +.8.S.cXX.N r t 2.jX{.,X:X}.}.}.XXrXrXXXXXXXXXXXXXXXXXXXXXXXXXXXXXXXXX",
"XXXXXXXXXXXXXXXXXXXXXXXXXXXXXXXXrXrXrXXXXX}.,X:Xd.t N 0.b.L.n.r.8.X.i x V $X:X).:X:X:X}.}.XXrXrXXXXXXXXXXXXXXXXXXXXXXXXXXXXXXXXX",
"XXXXXXXXXXXXXXXXXXXXXXXXXXXXXXXXR.fX[.XX8X{.0X/.q u.e.0.F.L.n.9.r.A.A.B.p.m y >Xt.wX%X:X8X[.rXrXXXXXXXXXXXXXXXXXXXXXXXXXXXXXXXXX",
"XXXXXXXXXXXXXXXXXXXXXXXXXXXXXXXXdX X X{.!.).$XC p.X.# o.xXP.9.8.BXz.A.=Xp.<.m t Z d.0X}.{.XXrXdXXXXXXXXXXXXXXXXXXXXXXXXXXXXXXXXX",
"XXXXXXXXXXXXXXXXXXXXXXXXXXXXXXXXgX[.,X).3.t.&.w + q.H.xXP.#.] 7.' { N.X.@ + N 5X;.&.%X%X{.8X[.rXXXXXXXXXXXXXXXXXXXXXXXXXXXXXXXXX",
"XXXXXXXXXXXXXXXXXXXXXXXXXXXXXX}.!.8X<XW.a.C x w.A.H.q.o.7.7.v.P.r.8.# x =XmX=X#X5Xp.&XhX:X(.'.dXXXXXXXXXXXXXXXXXXXXXXXXXXXXXXXXX",
"XXXXXXXXXXXXXXXXXXXXXXXXXXXXXX}.W.>Xy./.&X&.0.3Xx.C.S.L.P.7.v.L.r.S.>.0.p.Z.bX3X6X#Xh.h.;.~ {.aXXXXXXXXXXXXXXXXXXXXXXXXXXXXXXXXX",
"XXXXXXXXXXXXXXXXXXXXXXXXXXXXXX}.0XQ.C /.qXA.7XZ.x.F.F.P.F.n.L.P.x.mX=Xe.>.X.Z.3XS.S.N S C 2.sX XXXXXXXXXXXXXXXXXXXXXXXXXXXXXXXXX",
"XXXXXXXXXXXXXXXXXXXXXXXXXXXXXX}.9X/.Z -.*XA.C. .l.J.P.v.l.S.xXF.r.A.=Xe.e.0.p # q.r.X.X.d.qXhX,XXXXXXXXXXXXXXXXXXXXXXXXXXXXXXXXX",
"XXXXXXXXXXXXXXXXXXXXXXXXXXXXXX}._.qXg.x w.w.# # 4XC.8.l.l.l.H.P.q.# 7XA.i w.>.x w N p.*X0X%Xy.9X}.XXXXXXXXXXXXXXXXXXXXXXXXXXXXXX",
"XXXXXXXXXXXXXXXX!.[.XXXXXXXX.X[._.qX@Xh.N @ N i % # c e.:.i i >.X.v x *.} t C r o &.t a.>X%X$X0X{.}.XXoXoXXXXX.XXXXXXXXXXXXXXXXX",
"XXXXXXXXXXXXXXXXaXaXyXXXXXrXrXoX0Xt.&Xh.p.N i i c c :.>.N.+ c >.>.v @ w y r k e Q ! h E >X@X>X$X{.XXaXXXXXXXXXXX.XXXXXXXXXXXXXXX",
"XXXXXXXXXXXXXXXXaXyXXXXXXXaXuX}.(.qXd.qX&.q :.N.e.Z.,.z.+.+.z 0.b.X.N i y a t e o Q s.Q.Q.Q +X%XW. X8X8X}.}.2X2X.X.XXXXXXXXXXXXX",
"XXXXXXXXXXXXXXXX X XXXXXuXuX.XOXsXb f q @XqX5X>.=XcXH.o.x.x.+.+.H.q.>.i w *.-.f.g j j $X>XqXf.B ~ E. X}.}.XX}.XXXX.XXXXXXXXXXXXX",
"XXXXXXXXXXXXXXXX}.}.}.XXXXXXOXE.~ a.<XhXf.qX#XbX6X4XH.8.F.F.7.l.C.z.z...>.B.i.i.j l Z @X@X;X@X&.W 3.[.}.}.}.XXoXXXXXXXXXXXXXXXXX",
"XXXXXXXXXXXXXXXX,X,XXXXXXXXXoX(.T 3.Q.s.u.a #X4XG.q.8.L.F.P.o.P.F.C.x.z.-X6XM.:.*.a M *.;X;X#XZ 3.W.{.,X8X}.XXoXXXXXXXXXXXXXXXXX",
"XXXXXXXXXXXXXXXXXXXX}.oX}.8X8X,X:Xn g q m 7XZ.4X+.$ v.F.L.8.7.F.xXF.o. .x.Z.Z.V.[ u M M e.i.:.t ~.}.<X,X}.}.XX}.XXXXXXXXXXXXXXXX",
"XXXXXXXXXXXXXXXX XXXXX}.}.}.,X}.%X%Xf.x a >.V.,.p $ v.L.8.q.o.x.K.I.k.8.,.z p u u i + i + c i a %X:X:X{.{.}.}.XXXXXXXXXXXXXXXXXX",
"XXXX}.XXXXXXXXXXR.gX,X(.8X}.!.8Xj.7X@ + e.q.@ $ % k.q. .z +.z.k.' 9.9.@.q.k.,.' O 1.p ..c O.M.B.2.jX).{.sX(.}.oX}.}.XXXXXXXXXXXX",
"XXXX}.}.XXXXXXXXfXXX}.,X,X8X9X%X5Xz 3Xz % $ ' $ q.@.$ z ,.V.e.{ c.6.@.@.o.@.C.+.z.:.e.vXN.-X-Xe.NXW.qX0XW.8X8XoX}.}.XXXXXXXXXXXX",
"}.}.}.}.XXXXrXrX[.[.8X<X).).:X@XO P.F.H.H.zXL.o.k.v.z.,.q.O.e.x.I.@.6.D.9.k.J.z.,.N.-X-XG.N.z.mXf.$X:X).%X}.{.8X}.}.XXXXXXXXXXXX",
"}.}.}.}.XXXXrXrXaXdX}.{.,X~ C @XmX4XP.L.F.F.D.c.k.zXvXx.z.O.N.z.I.c.v.xXF.D.vXC.O.$ +.Z.6X-X4Xe.f.g g $X<X{.<X{.}.}.XXXXXXXXXXXX",
"}.}.}.}.XXXXrXrX'.aXE.~ ^.$X).qX>.b.cX4Xx.I.xX@.m.L.D.@.x.q.z. .J.L.K.L.L.P.xX4XcXq.{ ,.-X=X6Xi 9 Q 1XQ C :X_.,X}.}.XXXXXXXXrXrX",
"}.}.}.XXXXXXrXrXaXfXaX3.W y.a.m #X3XZ.z.J.J.' xXK.K.c.l.D.l.l.@.k.L.J.L.4XL.L.F.x.cXO.p e.,.=X=Xm -.2.a.9X2.b sX}.}.XXXXXXXXrXrX",
"}.}.}.XXXXrXrXrXaXR. XhX_.b t m :.Z...# G.@.MXl.D.K.c.n.I.U.n.8.o.l.v.F.D.F.H.q.C.G.C.+.c # | a y Q -.>X2.b ,X(.}.}.XXXXXXXXrXrX",
"}.}.}.XXXXrXrXrX|.fX,X).0X_.B y a i u i s vXG.zX' L.I.I.n.L.n.7.l.#.+.x.+.q.4Xq.$ e.e.i c w 0 u.t g r : b ~.sX{.}.}.XXXXXXXXrXrX",
"}.}.}.XXXXXXXXrX`.XX[.,X,X:Xg B + >.u a M 0 s u G.vX$ C.4Xq.G.q.] v.q.e.i c :.<.O a a a j 0 k s.Q Z r Q.$X:X8X(.}.XXXXrXrXrXrXrX",
"}.}.}.XXXXXXXXXXdXyXgX!.<X~.C 9 e.z.[ u d s } [ ;X+ $ cXq.z z.+.q.8. .{ s <.$.j Z a q r V k h h $X&Xq 2.).).(.aXXXXXXXXXrXrXrXrX",
"}.}.}.XXXXXXXXXXXXyXW.jX>X$XC qX6X+.' s } M.M.e.i z +.] ' +.l.+.7.8.q.' i e.} x O + a a r g k g $.-.>Xt >X,X,X}.XXXXXXXXXXXXXXXX",
"}.}.XXXXXXXXXXXX,X{.<X>Xu.;.f.bX4X+.q.e.>.e.e.>.# q.l.$ 8.7.o.4X7.n.P.+.{ e.e.>.w.+ w e.<.r 0 k V $.a.Q.3.T {.,XXXXXXXXXXXXXXXXX",
"}.XXXXXXXXXXXXXX(.!.qX/.t @XBXN.z.F.H.V.| | V.z.F.v.v.8.7.o.F.xXn.L.F.x.q.C.=X0.q.x.N.>.*.B.s.r g B $X! f ,X,X[.XXXXXXXXXX}.XX}.",
"XXXXXXXXXXXXXX}.<XhXd.&XM x @ ' v.cXG.....V.bX=X4XL.F.7.] x.MXv.F.L.F.C.x.0.=Xe.Z.q.>.e.i.4.4.4.&.Q e ! 1X~.sX,XXXXXXX}.}.}.}.}.",
"XXXXXXXXXXXXXX}.!.:X@X&XbXz p D.H.P.,.' N.-XN.G.P.F.7.l.7.x.G.C.x.v.xXH.q.c e.A.bXA.X.c :.f.=.j s.s.r Q W <X).,XXXXX}.}.}.}.}.}.",
"XXXXXXXXXXXXXX}.f y.u.w.i G.zX$ z $ p ' =XN.# 4XH.l.7.v.8.v.e.q.q.8.cXG.:.s *.6X#X7XN.c } u.i.4.k r R Q.3.b ,X[.XXXX}.}.}.}.}.}.",
"XXXXrXrXXXXXXX,X~.B Z x =X4XxXK.N.z i 1.:.s + cX{ p z C.nXZ.,.e.% q.e.:.B.s O B.Z.p.<.<.t j k j 0 k e E ^.! ^.h XXXX}.}.}.}.{.{.",
"XXXXXXXXXXXXXX,X<XR Z p.z.4XzX4XnX-Xu c [ O u i ' z q.H.-Xe.M e.N.i i *.5.5.$.O B.*.M =.V r 9 r %.j e h : R W [.,XXX}.}.}.}.}.{.",
"XXXXXXXXXXXXXX,X!.a.B w.N.+.$ D.Z.Z.:.O M :.[ + + +.C.nXG.i s *.1.a d V l j k r j a q j j V k E : 0 k k R <X!. X,XXXXX}.}.}.}.}.",
"}.}.XXXXXXXX}.,X<XhX@Xt w c z z.,.N.;X[ <.V.<.,.q.q.G.O.p s a +X:.s r k r e r l y m t m j g g =.+XV r e R b ^.sX,XXX,XXXXX}.XX}.",
"}.}.}.}.XXXX,X,X).:X).$X5Xi o 4X-XcXZ.V.=X| e.q.q.Z.' p i u :.:.1.M =.s.k j E l Z d y <.=.r e +X%.s.s.g e e R P ,XXXXXXXXXXXXX,X",
"}.}.}.}.}.XX,X}.,X(.9X&Xy p.bX6X3XC.e.=XbX,. .q.zXF.L.C.4XmXM.1.:.1.B.s.k 9 k 5.} m x i.s.-.$.s.+X=.4.-.g W h {.,X,X,XXXXXXX,X,X",
"}.}.}.}.}.}.XX}.{.8X<XQ.-.5X5X#X .] C.4X=Xz.z F.L.F.7.F.cXC.1.{ 1.1.*.$.$.l l s.<.i.<.w.*.s.=.V i.B.f.2.Q ~.!.,X,X,X,XrXrXrXrXrX",
"}.}.}.}.}.}.XXXX X8X}.f a.t.;.Z x A.3X7XX.+ c G.F.8.q.H.6Xw.w a 4.m 4.$X$.E 5.=.4.w.w.u.Z <.4.-.g 2.2.^.^.T <X,X,XXXXXXXrXXXrXXX",
"}.}.}.}.XXXXXXXXXX}.}.{.E.~ b > t.g.&.C y } -.w.N p.m &Xu.g R e : ! > ^.-.g a.u.Z @Xu.-.t n 2.y.~ W _ W T !.}.XXXXXXXXXXXXXXXXXX",
"XXXXXXXXXXXXXXXXaXaXdXaXXXXXXXXX(.f g a.C ;.a.t.Q t C Q.C > f X P T 8 R h R 2.2.Z &.u.;.C 3.b R W ` [.[.[.gXXXR.XXXXXXXXXXXXXXXX",
"XXXXXXXXXXXXXXXXXXXXXXXXXXXXaXdXhX_.:X0Xb f n y 2.R &.f e > ; : * * 8 h h ^.! e : n Q W 3.jX:XW.XX[.XX.X[.aXaXaXXXXXXXXXXXXXXXXX",
"XXXXXXXXXXXXXXXXXXXXXXXXXXXX[.[.(.{.).).:X:X).).9X:X~.X ; ;   * *   : * : :X^.! ).3.f :X9X(.).8XaXXXXXXXXXXXXXXXXXXXXXXXXXXXXXXX",
"XXXXXXXXXXXXXXXXXXXXXXaXaXXXXXXXaX8X X{.gX,X{.sX<X{.,X;   ; P   * *   . X '.sX~.{.9XR.,X{.oXXXR.[.XXXXaXdXXXXXXXXXXXXXXXXXXXXXXX",
"XXXXXXXXXXXXXXXXXXXX[.XXXXXXXXXX.X[.fXaX[.'.gXaX{.gX X; 2 8 _ 2   2 * & 2  XfX,XyX!. XdXXXuX].lXXXdX[.[.XX[.XXdXXXXXXXXXXXXXXXXX",
"XXXXXXXXXXXXXXXXaXXXXXXXXXXXXXrXuX.XaX.XrXaXdXY.|.lX`.* L L L L K ) K * 2 `.|.rX|.XXaX|.R.dX]..X[.fXXXXXdXXXXX[.XXXXXXXXXXXXXXXX",
"XXXXXXXXXXXXXXXXXXXXXXXXXXXXXX|..XpXeX].eXI 1 ^ H 6 L * K ) ( H K ) K & & L < L 6 H H eXiXeXuXuX[.gX[.[.aXXXaXaXXXXXXXXXXXXXXXXX",
"XXXXXXXXXXXXXXXX[.XX[.[.XX}.[.rXT.I 3 7 G 4 D I 1 I 6 K < H K K 1 L K * * & & K < F D D G 3 I eX[.XXXXXXXX[.[.aXXXXXXXXXXXXXXXXX",
"XXXXXXXXXXXXXXXXXXaXXX[.XXaXXX[./ I I / / J 4 4 Y ^ ^ 1 K L ( ^ < L L L ) ^ 1 = J D J / I D 3 , .XXXXX[.XXaXXXXXXXXXXXXXXXXXXXXX",
"XXXXXXXXXXXXXXXXXXXXXXXXXXXXR.T 5 7 I / / I G D - = J < ^ ^ 1 & ( ^ 1 ; J / G D D 3 Y Y , , J J T R.aXaXXXXX[.XXXXXXXXXXXXXXXXXX",
"XXXXXXXXXXXXXXXX[.[.aXaXXXXXR.U U 7 5 4 4 4 F J , 3 F < < ( ; ; ) ^ < 1 ^ ` Y G D , D J G G J 6 U R.aXaXXXXX[.XXXXXXXXXXXXXXXXXX",
"XXXXXXXXXXXXXXXXaXXXXXXX[.aXdX[.6 , , G I 4 3 4 J G D = - ^ 1 H 6 K 6 6 J I F 3 Y J D D J 1 1 H |.aXXX[.XXdXaXXXXXXXXXXXXXXXXXXX",
"XXXXXXXXXXXXXXXXaXXXXXXX[.XXdXaX[.` 6 6 4 , F / D 4 Y , J H 6 6 6 7 G 5 3 4 G I 3 D 4 G I 7 ^ rXaXdXXX[.XXXXXXXXXXXXXXXXXXXXXXXX",
"XXXXXXXXXXXXXXXXXXXXXXXXXXXX[.[.XX|.|.eX`./ F 3 D F J = G 6 7 6 5 6 H U G G G D G D J T.rXrX.XXXR.[.XXXXXX[.[.aXXXXXXXXXXXXXXXXX",
"XXXXXXXXXXXXXXXXaXaX[.XXdXXX[.aXXXXXrXrXeX.XeXeX].iX].iXrXiX.X|.rX.X.X.X.XtXiXeXiX].tXdXeXrXdX|.uXXX[.XXaXXX[.aXXXXXXXXXXXXXXXXX"
};
